<?xml version="1.0" encoding="UTF-8"?>
<!DOCTYPE svg PUBLIC "-//W3C//DTD SVG 1.1//EN" "http://www.w3.org/Graphics/SVG/1.1/DTD/svg11.dtd">
<svg xmlns="http://www.w3.org/2000/svg" xmlns:xlink="http://www.w3.org/1999/xlink" width="1108px" height="627px" version="1.1" style="background-color: rgb(255, 255, 255);"><defs><clipPath id="mx-clip-371-14-40-20-0"><rect x="371" y="14" width="40" height="20"/></clipPath><clipPath id="mx-clip-56-55-70-20-0"><rect x="56" y="55" width="70" height="20"/></clipPath><clipPath id="mx-clip-56-205-70-20-0"><rect x="56" y="205" width="70" height="20"/></clipPath><clipPath id="mx-clip-51-345-80-20-0"><rect x="51" y="345" width="80" height="20"/></clipPath><clipPath id="mx-clip-346-56-90-20-0"><rect x="346" y="56" width="90" height="20"/></clipPath><clipPath id="mx-clip-346-205-90-20-0"><rect x="346" y="205" width="90" height="20"/></clipPath><clipPath id="mx-clip-346-345-90-20-0"><rect x="346" y="345" width="90" height="20"/></clipPath><clipPath id="mx-clip-648-41-96-20-0"><rect x="648" y="41" width="96" height="20"/></clipPath><clipPath id="mx-clip-751-359-90-20-0"><rect x="751" y="359" width="90" height="20"/></clipPath><clipPath id="mx-clip-741-548-105-20-0"><rect x="741" y="548" width="105" height="20"/></clipPath><clipPath id="mx-clip-966-40-98-35-0"><rect x="966" y="40" width="98" height="35"/></clipPath><clipPath id="mx-clip-971-219-90-20-0"><rect x="971" y="219" width="90" height="20"/></clipPath></defs><g transform="translate(0.5,0.5)"><rect x="284" y="1" width="222" height="459" fill="none" stroke="#000000" pointer-events="none"/><g fill="#000000" font-family="Helvetica" text-anchor="middle" font-size="12px"><text x="394.75" y="12.5">&lt;&lt;component&gt;&gt;</text></g><path d="M 483 8 L 499 8 L 499 28 L 483 28 L 483 24 L 479 24 L 479 20 L 483 20 L 483 16 L 479 16 L 479 12 L 483 12 Z" fill="#ffffff" stroke="#000000" stroke-miterlimit="10" pointer-events="none"/><path d="M 483 12 L 487 12 L 487 16 L 483 16 M 483 20 L 487 20 L 487 24 L 483 24" fill="none" stroke="#000000" stroke-miterlimit="10" pointer-events="none"/><path d="M 469 144 L 469 161" fill="none" stroke="#000000" stroke-miterlimit="10" transform="rotate(180,469,146)" pointer-events="none"/><path d="M 461 136 Q 461 144 469 144 Q 477 144 477 136" fill="none" stroke="#000000" stroke-miterlimit="10" transform="rotate(180,469,146)" pointer-events="none"/><ellipse cx="263" cy="205" rx="5" ry="5" fill="none" stroke="#000000" transform="rotate(-90,263,239)" pointer-events="none"/><path d="M 263 210 L 263 278" fill="none" stroke="#000000" stroke-miterlimit="10" transform="rotate(-90,263,239)" pointer-events="none"/><path d="M 207 227 L 207 264" fill="none" stroke="#000000" stroke-miterlimit="10" transform="rotate(90,207,239)" pointer-events="none"/><path d="M 199 219 Q 199 227 207 227 Q 215 227 215 219" fill="none" stroke="#000000" stroke-miterlimit="10" transform="rotate(90,207,239)" pointer-events="none"/><g fill="#000000" font-family="Helvetica" font-size="12px"><text x="213" y="226">Mobile</text></g><g fill="#000000" font-family="Helvetica" font-weight="bold" clip-path="url(#mx-clip-371-14-40-20-0)" text-anchor="middle" font-size="13px"><text x="391" y="28.5">GUI</text></g><rect x="1" y="40" width="180" height="90" fill="#ffffff" stroke="#000000" pointer-events="none"/><g fill="#000000" font-family="Helvetica" text-anchor="middle" font-size="12px"><text x="90.75" y="51.5">&lt;&lt;component&gt;&gt;</text></g><path d="M 158 47 L 174 47 L 174 67 L 158 67 L 158 63 L 154 63 L 154 59 L 158 59 L 158 55 L 154 55 L 154 51 L 158 51 Z" fill="#ffffff" stroke="#000000" stroke-miterlimit="10" pointer-events="none"/><path d="M 158 51 L 162 51 L 162 55 L 158 55 M 158 59 L 162 59 L 162 63 L 158 63" fill="none" stroke="#000000" stroke-miterlimit="10" pointer-events="none"/><g fill="#000000" font-family="Helvetica" font-weight="bold" clip-path="url(#mx-clip-56-55-70-20-0)" text-anchor="middle" font-size="13px"><text x="91" y="69.5">Passenger</text></g><rect x="1" y="190" width="180" height="90" fill="#ffffff" stroke="#000000" pointer-events="none"/><g fill="#000000" font-family="Helvetica" text-anchor="middle" font-size="12px"><text x="90.75" y="201.5">&lt;&lt;component&gt;&gt;</text></g><path d="M 158 197 L 174 197 L 174 217 L 158 217 L 158 213 L 154 213 L 154 209 L 158 209 L 158 205 L 154 205 L 154 201 L 158 201 Z" fill="#ffffff" stroke="#000000" stroke-miterlimit="10" pointer-events="none"/><path d="M 158 201 L 162 201 L 162 205 L 158 205 M 158 209 L 162 209 L 162 213 L 158 213" fill="none" stroke="#000000" stroke-miterlimit="10" pointer-events="none"/><g fill="#000000" font-family="Helvetica" font-weight="bold" clip-path="url(#mx-clip-56-205-70-20-0)" text-anchor="middle" font-size="13px"><text x="91" y="219.5">Taxi Driver</text></g><rect x="1" y="330" width="180" height="90" fill="#ffffff" stroke="#000000" pointer-events="none"/><g fill="#000000" font-family="Helvetica" text-anchor="middle" font-size="12px"><text x="90.75" y="341.5">&lt;&lt;component&gt;&gt;</text></g><path d="M 158 337 L 174 337 L 174 357 L 158 357 L 158 353 L 154 353 L 154 349 L 158 349 L 158 345 L 154 345 L 154 341 L 158 341 Z" fill="#ffffff" stroke="#000000" stroke-miterlimit="10" pointer-events="none"/><path d="M 158 341 L 162 341 L 162 345 L 158 345 M 158 349 L 162 349 L 162 353 L 158 353" fill="none" stroke="#000000" stroke-miterlimit="10" pointer-events="none"/><g fill="#000000" font-family="Helvetica" font-weight="bold" clip-path="url(#mx-clip-51-345-80-20-0)" text-anchor="middle" font-size="13px"><text x="91" y="359.5">Sys Admin</text></g><rect x="301" y="40" width="180" height="90" fill="#ffffff" stroke="#000000" pointer-events="none"/><g fill="#000000" font-family="Helvetica" text-anchor="middle" font-size="12px"><text x="390.75" y="51.5">&lt;&lt;component&gt;&gt;</text></g><path d="M 458 47 L 474 47 L 474 67 L 458 67 L 458 63 L 454 63 L 454 59 L 458 59 L 458 55 L 454 55 L 454 51 L 458 51 Z" fill="#ffffff" stroke="#000000" stroke-miterlimit="10" pointer-events="none"/><path d="M 458 51 L 462 51 L 462 55 L 458 55 M 458 59 L 462 59 L 462 63 L 458 63" fill="none" stroke="#000000" stroke-miterlimit="10" pointer-events="none"/><g fill="#000000" font-family="Helvetica" font-weight="bold" clip-path="url(#mx-clip-346-56-90-20-0)" text-anchor="middle" font-size="13px"><text x="391" y="70.5">Passenger UI</text></g><rect x="301" y="190" width="180" height="90" fill="none" stroke="#000000" pointer-events="none"/><g fill="#000000" font-family="Helvetica" text-anchor="middle" font-size="12px"><text x="390.75" y="201.5">&lt;&lt;component&gt;&gt;</text></g><path d="M 458 197 L 474 197 L 474 217 L 458 217 L 458 213 L 454 213 L 454 209 L 458 209 L 458 205 L 454 205 L 454 201 L 458 201 Z" fill="#ffffff" stroke="#000000" stroke-miterlimit="10" pointer-events="none"/><path d="M 458 201 L 462 201 L 462 205 L 458 205 M 458 209 L 462 209 L 462 213 L 458 213" fill="none" stroke="#000000" stroke-miterlimit="10" pointer-events="none"/><g fill="#000000" font-family="Helvetica" font-weight="bold" clip-path="url(#mx-clip-346-205-90-20-0)" text-anchor="middle" font-size="13px"><text x="391" y="219.5">Taxi Driver UI</text></g><rect x="301" y="330" width="180" height="90" fill="none" stroke="#000000" pointer-events="none"/><g fill="#000000" font-family="Helvetica" text-anchor="middle" font-size="12px"><text x="390.75" y="341.5">&lt;&lt;component&gt;&gt;</text></g><path d="M 458 337 L 474 337 L 474 357 L 458 357 L 458 353 L 454 353 L 454 349 L 458 349 L 458 345 L 454 345 L 454 341 L 458 341 Z" fill="#ffffff" stroke="#000000" stroke-miterlimit="10" pointer-events="none"/><path d="M 458 341 L 462 341 L 462 345 L 458 345 M 458 349 L 462 349 L 462 353 L 458 353" fill="none" stroke="#000000" stroke-miterlimit="10" pointer-events="none"/><g fill="#000000" font-family="Helvetica" font-weight="bold" clip-path="url(#mx-clip-346-345-90-20-0)" text-anchor="middle" font-size="13px"><text x="391" y="359.5">Sys Admin UI</text></g><ellipse cx="262" cy="26" rx="5" ry="5" fill="none" stroke="#000000" transform="rotate(-90,262,60)" pointer-events="none"/><path d="M 262 31 L 262 99" fill="none" stroke="#000000" stroke-miterlimit="10" transform="rotate(-90,262,60)" pointer-events="none"/><ellipse cx="262" cy="71" rx="5" ry="5" fill="none" stroke="#000000" transform="rotate(-90,262,105)" pointer-events="none"/><path d="M 262 76 L 262 144" fill="none" stroke="#000000" stroke-miterlimit="10" transform="rotate(-90,262,105)" pointer-events="none"/><ellipse cx="262" cy="339" rx="5" ry="5" fill="none" stroke="#000000" transform="rotate(-90,262,373)" pointer-events="none"/><path d="M 262 344 L 262 412" fill="none" stroke="#000000" stroke-miterlimit="10" transform="rotate(-90,262,373)" pointer-events="none"/><path d="M 207.5 47.5 L 207.5 85.5" fill="none" stroke="#000000" stroke-miterlimit="10" transform="rotate(90,207.5,60)" pointer-events="none"/><path d="M 199.5 39.5 Q 199.5 47.5 207.5 47.5 Q 215.5 47.5 215.5 39.5" fill="none" stroke="#000000" stroke-miterlimit="10" transform="rotate(90,207.5,60)" pointer-events="none"/><path d="M 207.5 92.5 L 207.5 130.5" fill="none" stroke="#000000" stroke-miterlimit="10" transform="rotate(90,207.5,105)" pointer-events="none"/><path d="M 199.5 84.5 Q 199.5 92.5 207.5 92.5 Q 215.5 92.5 215.5 84.5" fill="none" stroke="#000000" stroke-miterlimit="10" transform="rotate(90,207.5,105)" pointer-events="none"/><path d="M 206 361 L 206 398" fill="none" stroke="#000000" stroke-miterlimit="10" transform="rotate(90,206,373)" pointer-events="none"/><path d="M 198 353 Q 198 361 206 361 Q 214 361 214 353" fill="none" stroke="#000000" stroke-miterlimit="10" transform="rotate(90,206,373)" pointer-events="none"/><g fill="#000000" font-family="Helvetica" font-size="12px"><text x="218" y="50">Mobile</text></g><g fill="#000000" font-family="Helvetica" font-size="12px"><text x="198" y="134">Web browser</text></g><g fill="#000000" font-family="Helvetica" font-size="12px"><text x="206" y="360">Web browser</text></g><rect x="606" y="25" width="180" height="90" fill="none" stroke="#000000" pointer-events="none"/><g fill="#000000" font-family="Helvetica" text-anchor="middle" font-size="12px"><text x="695.75" y="36.5">&lt;&lt;component&gt;&gt;</text></g><path d="M 763 32 L 779 32 L 779 52 L 763 52 L 763 48 L 759 48 L 759 44 L 763 44 L 763 40 L 759 40 L 759 36 L 763 36 Z" fill="#ffffff" stroke="#000000" stroke-miterlimit="10" pointer-events="none"/><path d="M 763 36 L 767 36 L 767 40 L 763 40 M 763 44 L 767 44 L 767 48 L 763 48" fill="none" stroke="#000000" stroke-miterlimit="10" pointer-events="none"/><g fill="#000000" font-family="Helvetica" font-weight="bold" clip-path="url(#mx-clip-648-41-96-20-0)" text-anchor="middle" font-size="13px"><text x="696" y="55.5">Access Control</text></g><rect x="706" y="346" width="180" height="90" fill="none" stroke="#000000" pointer-events="none"/><g fill="#000000" font-family="Helvetica" text-anchor="middle" font-size="12px"><text x="795.75" y="357.5">&lt;&lt;component&gt;&gt;</text></g><path d="M 863 353 L 879 353 L 879 373 L 863 373 L 863 369 L 859 369 L 859 365 L 863 365 L 863 361 L 859 361 L 859 357 L 863 357 Z" fill="#ffffff" stroke="#000000" stroke-miterlimit="10" pointer-events="none"/><path d="M 863 357 L 867 357 L 867 361 L 863 361 M 863 365 L 867 365 L 867 369 L 863 369" fill="none" stroke="#000000" stroke-miterlimit="10" pointer-events="none"/><g fill="#000000" font-family="Helvetica" font-weight="bold" clip-path="url(#mx-clip-751-359-90-20-0)" text-anchor="middle" font-size="13px"><text x="796" y="373.5">Ride Manager</text></g><rect x="706" y="535" width="180" height="90" fill="none" stroke="#000000" pointer-events="none"/><g fill="#000000" font-family="Helvetica" text-anchor="middle" font-size="12px"><text x="795.75" y="546.5">&lt;&lt;component&gt;&gt;</text></g><path d="M 863 542 L 879 542 L 879 562 L 863 562 L 863 558 L 859 558 L 859 554 L 863 554 L 863 550 L 859 550 L 859 546 L 863 546 Z" fill="#ffffff" stroke="#000000" stroke-miterlimit="10" pointer-events="none"/><path d="M 863 546 L 867 546 L 867 550 L 863 550 M 863 554 L 867 554 L 867 558 L 863 558" fill="none" stroke="#000000" stroke-miterlimit="10" pointer-events="none"/><g fill="#000000" font-family="Helvetica" font-weight="bold" clip-path="url(#mx-clip-741-548-105-20-0)" text-anchor="middle" font-size="13px"><text x="793.5" y="562.5">Queue Manager</text></g><rect x="926" y="25" width="180" height="90" fill="none" stroke="#000000" pointer-events="none"/><g fill="#000000" font-family="Helvetica" text-anchor="middle" font-size="12px"><text x="1015.75" y="36.5">&lt;&lt;component&gt;&gt;</text></g><path d="M 1083 32 L 1099 32 L 1099 52 L 1083 52 L 1083 48 L 1079 48 L 1079 44 L 1083 44 L 1083 40 L 1079 40 L 1079 36 L 1083 36 Z" fill="#ffffff" stroke="#000000" stroke-miterlimit="10" pointer-events="none"/><path d="M 1083 36 L 1087 36 L 1087 40 L 1083 40 M 1083 44 L 1087 44 L 1087 48 L 1083 48" fill="none" stroke="#000000" stroke-miterlimit="10" pointer-events="none"/><g fill="#000000" font-family="Helvetica" font-weight="bold" clip-path="url(#mx-clip-966-40-98-35-0)" text-anchor="middle" font-size="13px"><text x="1015" y="54">myTaxiService</text><text x="1015" y="70">Database</text></g><ellipse cx="723" cy="484" rx="5" ry="5" fill="none" stroke="#000000" pointer-events="none"/><path d="M 723 489 L 723 535" fill="none" stroke="#000000" stroke-miterlimit="10" pointer-events="none"/><path d="M 723 449 L 723 488" fill="none" stroke="#000000" stroke-miterlimit="10" transform="rotate(180,723,462)" pointer-events="none"/><path d="M 715 441 Q 715 449 723 449 Q 731 449 731 441" fill="none" stroke="#000000" stroke-miterlimit="10" transform="rotate(180,723,462)" pointer-events="none"/><g fill="#000000" font-family="Helvetica" font-size="12px"><text x="668" y="519">Best Taxi</text></g><path d="M 783 449 L 783 488" fill="none" stroke="#000000" stroke-miterlimit="10" transform="rotate(180,783,462)" pointer-events="none"/><path d="M 775 441 Q 775 449 783 449 Q 791 449 791 441" fill="none" stroke="#000000" stroke-miterlimit="10" transform="rotate(180,783,462)" pointer-events="none"/><ellipse cx="783" cy="484" rx="5" ry="5" fill="none" stroke="#000000" pointer-events="none"/><path d="M 783 489 L 783 535" fill="none" stroke="#000000" stroke-miterlimit="10" pointer-events="none"/><g fill="#000000" font-family="Helvetica" font-size="12px"><text x="750" y="514">Add</text><text x="750" y="528">Taxi</text></g><ellipse cx="843" cy="484" rx="5" ry="5" fill="none" stroke="#000000" pointer-events="none"/><path d="M 843 489 L 843 535" fill="none" stroke="#000000" stroke-miterlimit="10" pointer-events="none"/><path d="M 843 449 L 843 488" fill="none" stroke="#000000" stroke-miterlimit="10" transform="rotate(180,843,462)" pointer-events="none"/><path d="M 835 441 Q 835 449 843 449 Q 851 449 851 441" fill="none" stroke="#000000" stroke-miterlimit="10" transform="rotate(180,843,462)" pointer-events="none"/><g fill="#000000" font-family="Helvetica" font-size="12px"><text x="850" y="511">Remove</text><text x="850" y="525">Taxi</text></g><ellipse cx="686" cy="548" rx="5" ry="5" fill="none" stroke="#000000" transform="rotate(270,686,563)" pointer-events="none"/><path d="M 686 553 L 686 583" fill="none" stroke="#000000" stroke-miterlimit="10" transform="rotate(270,686,563)" pointer-events="none"/><path d="M 518.5 244.5 L 518.5 306.5" fill="none" stroke="#000000" stroke-miterlimit="10" transform="rotate(450,518.5,269)" pointer-events="none"/><path d="M 510.5 236.5 Q 510.5 244.5 518.5 244.5 Q 526.5 244.5 526.5 236.5" fill="none" stroke="#000000" stroke-miterlimit="10" transform="rotate(450,518.5,269)" pointer-events="none"/><path d="M 547 270 L 606 269.14 Q 616 269 616 279 L 616 553 Q 616 563 626 563 L 663.76 563" fill="none" stroke="#000000" stroke-miterlimit="10" stroke-dasharray="3 3" pointer-events="none"/><path d="M 657.88 566.5 L 664.88 563 L 657.88 559.5" fill="none" stroke="#000000" stroke-miterlimit="10" pointer-events="none"/><ellipse cx="891" cy="39" rx="5" ry="5" fill="none" stroke="#000000" transform="rotate(-90,891,69)" pointer-events="none"/><path d="M 891 44 L 891 104" fill="none" stroke="#000000" stroke-miterlimit="10" transform="rotate(-90,891,69)" pointer-events="none"/><path d="M 826 42 L 826 109" fill="none" stroke="#000000" stroke-miterlimit="10" transform="rotate(450,826,69)" pointer-events="none"/><path d="M 818 34 Q 818 42 826 42 Q 834 42 834 34" fill="none" stroke="#000000" stroke-miterlimit="10" transform="rotate(450,826,69)" pointer-events="none"/><g fill="#000000" font-family="Helvetica" font-size="12px"><text x="648" y="586">Change</text><text x="648" y="600">Status</text></g><ellipse cx="590" cy="40" rx="5" ry="5" fill="none" stroke="#000000" transform="rotate(270,590,51)" pointer-events="none"/><path d="M 590 45 L 590 67" fill="none" stroke="#000000" stroke-miterlimit="10" transform="rotate(270,590,51)" pointer-events="none"/><ellipse cx="591" cy="96" rx="5" ry="5" fill="none" stroke="#000000" transform="rotate(270,591,106)" pointer-events="none"/><path d="M 591 101 L 591 121" fill="none" stroke="#000000" stroke-miterlimit="10" transform="rotate(270,591,106)" pointer-events="none"/><path d="M 532 14 L 532 101" fill="none" stroke="#000000" stroke-miterlimit="10" transform="rotate(90,532,51)" pointer-events="none"/><path d="M 524 6 Q 524 14 532 14 Q 540 14 540 6" fill="none" stroke="#000000" stroke-miterlimit="10" transform="rotate(90,532,51)" pointer-events="none"/><path d="M 509 70 L 509 111" fill="none" stroke="#000000" stroke-miterlimit="10" transform="rotate(90,509,84)" pointer-events="none"/><path d="M 501 62 Q 501 70 509 70 Q 517 70 517 62" fill="none" stroke="#000000" stroke-miterlimit="10" transform="rotate(90,509,84)" pointer-events="none"/><g fill="#000000" font-family="Helvetica" font-size="12px"><text x="515" y="45">Sign Up</text></g><g fill="#000000" font-family="Helvetica" font-size="12px"><text x="552" y="93">Login</text></g><path d="M 525 85 L 573.92 104.18" fill="none" stroke="#000000" stroke-miterlimit="10" stroke-dasharray="3 3" pointer-events="none"/><path d="M 567.16 105.29 L 574.96 104.59 L 569.72 98.78" fill="none" stroke="#000000" stroke-miterlimit="10" pointer-events="none"/><path d="M 514 187 L 514 238" fill="none" stroke="#000000" stroke-miterlimit="10" transform="rotate(90,514,206)" pointer-events="none"/><path d="M 506 179 Q 506 187 514 187 Q 522 187 522 179" fill="none" stroke="#000000" stroke-miterlimit="10" transform="rotate(90,514,206)" pointer-events="none"/><path d="M 536 208 L 567 208 Q 577 208 577 198 L 577 116.24" fill="none" stroke="#000000" stroke-miterlimit="10" stroke-dasharray="3 3" pointer-events="none"/><path d="M 580.5 122.12 L 577 115.12 L 573.5 122.12" fill="none" stroke="#000000" stroke-miterlimit="10" pointer-events="none"/><path d="M 545 351 L 576 351 Q 586 351 586 341 L 586 114.24" fill="none" stroke="#000000" stroke-miterlimit="10" stroke-dasharray="3 3" pointer-events="none"/><path d="M 589.5 120.12 L 586 113.12 L 582.5 120.12" fill="none" stroke="#000000" stroke-miterlimit="10" pointer-events="none"/><path d="M 519 325 L 519 386" fill="none" stroke="#000000" stroke-miterlimit="10" transform="rotate(90,519,349)" pointer-events="none"/><path d="M 511 317 Q 511 325 519 325 Q 527 325 527 317" fill="none" stroke="#000000" stroke-miterlimit="10" transform="rotate(90,519,349)" pointer-events="none"/><ellipse cx="658" cy="121" rx="5" ry="5" fill="none" stroke="#000000" transform="rotate(180,658,131)" pointer-events="none"/><path d="M 658 126 L 658 146" fill="none" stroke="#000000" stroke-miterlimit="10" transform="rotate(180,658,131)" pointer-events="none"/><path d="M 518.5 379.5 L 518.5 441.5" fill="none" stroke="#000000" stroke-miterlimit="10" transform="rotate(90,518.5,404)" pointer-events="none"/><path d="M 510.5 371.5 Q 510.5 379.5 518.5 379.5 Q 526.5 379.5 526.5 371.5" fill="none" stroke="#000000" stroke-miterlimit="10" transform="rotate(90,518.5,404)" pointer-events="none"/><path d="M 546 404 L 648 404 Q 658 404 658 394 L 658 148.24" fill="none" stroke="#000000" stroke-miterlimit="10" stroke-dasharray="3 3" pointer-events="none"/><path d="M 661.5 154.12 L 658 147.12 L 654.5 154.12" fill="none" stroke="#000000" stroke-miterlimit="10" pointer-events="none"/><g fill="#000000" font-family="Helvetica" font-size="12px"><text x="668" y="134">Sign Up</text><text x="668" y="148">Taxi Driver</text></g><rect x="926" y="203" width="180" height="90" fill="none" stroke="#000000" pointer-events="none"/><g fill="#000000" font-family="Helvetica" text-anchor="middle" font-size="12px"><text x="1015.75" y="214.5">&lt;&lt;component&gt;&gt;</text></g><path d="M 1083 210 L 1099 210 L 1099 230 L 1083 230 L 1083 226 L 1079 226 L 1079 222 L 1083 222 L 1083 218 L 1079 218 L 1079 214 L 1083 214 Z" fill="#ffffff" stroke="#000000" stroke-miterlimit="10" pointer-events="none"/><path d="M 1083 214 L 1087 214 L 1087 218 L 1083 218 M 1083 222 L 1087 222 L 1087 226 L 1083 226" fill="none" stroke="#000000" stroke-miterlimit="10" pointer-events="none"/><g fill="#000000" font-family="Helvetica" font-weight="bold" clip-path="url(#mx-clip-971-219-90-20-0)" text-anchor="middle" font-size="13px"><text x="1016" y="233.5">Maps API</text></g><ellipse cx="906" cy="203" rx="5" ry="5" fill="none" stroke="#000000" transform="rotate(270,906,218)" pointer-events="none"/><path d="M 906 208 L 906 238" fill="none" stroke="#000000" stroke-miterlimit="10" transform="rotate(270,906,218)" pointer-events="none"/><g fill="#000000" font-family="Helvetica" font-size="12px"><text x="878" y="207">ETA</text></g><path d="M 820 306 L 820 347" fill="none" stroke="#000000" stroke-miterlimit="10" pointer-events="none"/><path d="M 812 298 Q 812 306 820 306 Q 828 306 828 298" fill="none" stroke="#000000" stroke-miterlimit="10" pointer-events="none"/><path d="M 821 307 L 821 229 Q 821 219 831 219 L 883.76 219" fill="none" stroke="#000000" stroke-miterlimit="10" stroke-dasharray="3 3" pointer-events="none"/><path d="M 877.88 222.5 L 884.88 219 L 877.88 215.5" fill="none" stroke="#000000" stroke-miterlimit="10" pointer-events="none"/><ellipse cx="893" cy="246" rx="5" ry="5" fill="none" stroke="#000000" transform="rotate(270,893,274)" pointer-events="none"/><path d="M 893 251 L 893 307" fill="none" stroke="#000000" stroke-miterlimit="10" transform="rotate(270,893,274)" pointer-events="none"/><path d="M 865 283.5 L 865 344.5" fill="none" stroke="#000000" stroke-miterlimit="10" pointer-events="none"/><path d="M 857 275.5 Q 857 283.5 865 283.5 Q 873 283.5 873 275.5" fill="none" stroke="#000000" stroke-miterlimit="10" pointer-events="none"/><g fill="#000000" font-family="Helvetica" font-size="12px"><text x="873" y="305">Shortest</text><text x="873" y="319">Path</text></g><ellipse cx="781" cy="305" rx="5" ry="5" fill="none" stroke="#000000" pointer-events="none"/><path d="M 781 310 L 781 346" fill="none" stroke="#000000" stroke-miterlimit="10" pointer-events="none"/><ellipse cx="736" cy="305" rx="5" ry="5" fill="none" stroke="#000000" pointer-events="none"/><path d="M 736 310 L 736 346" fill="none" stroke="#000000" stroke-miterlimit="10" pointer-events="none"/><path d="M 507.5 103.5 L 507.5 143.5" fill="none" stroke="#000000" stroke-miterlimit="10" transform="rotate(90,507.5,117)" pointer-events="none"/><path d="M 499.5 95.5 Q 499.5 103.5 507.5 103.5 Q 515.5 103.5 515.5 95.5" fill="none" stroke="#000000" stroke-miterlimit="10" transform="rotate(90,507.5,117)" pointer-events="none"/><path d="M 524 119 L 771.46 196.99 Q 781 200 781 210 L 781 297.76" fill="none" stroke="#000000" stroke-miterlimit="10" stroke-dasharray="3 3" pointer-events="none"/><path d="M 777.5 291.88 L 781 298.88 L 784.5 291.88" fill="none" stroke="#000000" stroke-miterlimit="10" pointer-events="none"/><g fill="#000000" font-family="Helvetica" font-size="12px"><text x="760" y="184">Request</text></g><path d="M 468 149 L 468 160 Q 468 170 477.83 171.85 L 724.17 218.15 Q 734 220 734.25 230 L 735.94 297.76" fill="none" stroke="#000000" stroke-miterlimit="10" stroke-dasharray="3 3" pointer-events="none"/><path d="M 732.3 291.97 L 735.97 298.88 L 739.3 291.8" fill="none" stroke="#000000" stroke-miterlimit="10" pointer-events="none"/><g fill="#000000" font-family="Helvetica" font-size="12px"><text x="668" y="335">Reservation</text></g><g fill="#000000" font-family="Helvetica" font-size="12px"><text x="842" y="59">JDBC</text></g></g></svg>