<?xml version="1.0" encoding="UTF-8"?>
<!DOCTYPE svg PUBLIC "-//W3C//DTD SVG 1.1//EN" "http://www.w3.org/Graphics/SVG/1.1/DTD/svg11.dtd">
<svg xmlns="http://www.w3.org/2000/svg" xmlns:xlink="http://www.w3.org/1999/xlink" width="1135px" height="627px" version="1.1" style="background-color: rgb(255, 255, 255);"><defs><clipPath id="mx-clip-381-14-80-20-0"><rect x="381" y="14" width="80" height="20"/></clipPath><clipPath id="mx-clip-56-55-70-20-0"><rect x="56" y="55" width="70" height="20"/></clipPath><clipPath id="mx-clip-56-205-70-20-0"><rect x="56" y="205" width="70" height="20"/></clipPath><clipPath id="mx-clip-51-345-80-20-0"><rect x="51" y="345" width="80" height="20"/></clipPath><clipPath id="mx-clip-373-56-90-34-0"><rect x="373" y="56" width="90" height="34"/></clipPath><clipPath id="mx-clip-373-205-90-45-0"><rect x="373" y="205" width="90" height="45"/></clipPath><clipPath id="mx-clip-373-345-90-45-0"><rect x="373" y="345" width="90" height="45"/></clipPath><clipPath id="mx-clip-675-41-96-20-0"><rect x="675" y="41" width="96" height="20"/></clipPath><clipPath id="mx-clip-778-359-90-20-0"><rect x="778" y="359" width="90" height="20"/></clipPath><clipPath id="mx-clip-768-548-105-20-0"><rect x="768" y="548" width="105" height="20"/></clipPath><clipPath id="mx-clip-993-40-98-35-0"><rect x="993" y="40" width="98" height="35"/></clipPath><clipPath id="mx-clip-998-219-90-20-0"><rect x="998" y="219" width="90" height="20"/></clipPath></defs><g transform="translate(0.5,0.5)"><rect x="311" y="1" width="222" height="459" fill="none" stroke="#000000" pointer-events="none"/><g fill="#000000" font-family="Helvetica" text-anchor="middle" font-size="12px"><text x="421.75" y="12.5">&lt;&lt;component&gt;&gt;</text></g><path d="M 510 8 L 526 8 L 526 28 L 510 28 L 510 24 L 506 24 L 506 20 L 510 20 L 510 16 L 506 16 L 506 12 L 510 12 Z" fill="#ffffff" stroke="#000000" stroke-miterlimit="10" pointer-events="none"/><path d="M 510 12 L 514 12 L 514 16 L 510 16 M 510 20 L 514 20 L 514 24 L 510 24" fill="none" stroke="#000000" stroke-miterlimit="10" pointer-events="none"/><ellipse cx="297" cy="214" rx="5" ry="5" fill="none" stroke="#000000" transform="rotate(-90,297,239)" pointer-events="none"/><path d="M 297 219 L 297 269" fill="none" stroke="#000000" stroke-miterlimit="10" transform="rotate(-90,297,239)" pointer-events="none"/><path d="M 228.5 205.5 L 228.5 285.5" fill="none" stroke="#000000" stroke-miterlimit="10" transform="rotate(90,228.5,239)" pointer-events="none"/><path d="M 220.5 197.5 Q 220.5 205.5 228.5 205.5 Q 236.5 205.5 236.5 197.5" fill="none" stroke="#000000" stroke-miterlimit="10" transform="rotate(90,228.5,239)" pointer-events="none"/><g fill="#000000" font-family="Helvetica" font-weight="bold" clip-path="url(#mx-clip-381-14-80-20-0)" text-anchor="middle" font-size="13px"><text x="421" y="28.5">GUI Logic</text></g><rect x="1" y="40" width="180" height="90" fill="#ffffff" stroke="#000000" pointer-events="none"/><g fill="#000000" font-family="Helvetica" text-anchor="middle" font-size="12px"><text x="90.75" y="51.5">&lt;&lt;component&gt;&gt;</text></g><path d="M 158 47 L 174 47 L 174 67 L 158 67 L 158 63 L 154 63 L 154 59 L 158 59 L 158 55 L 154 55 L 154 51 L 158 51 Z" fill="#ffffff" stroke="#000000" stroke-miterlimit="10" pointer-events="none"/><path d="M 158 51 L 162 51 L 162 55 L 158 55 M 158 59 L 162 59 L 162 63 L 158 63" fill="none" stroke="#000000" stroke-miterlimit="10" pointer-events="none"/><g fill="#000000" font-family="Helvetica" font-weight="bold" clip-path="url(#mx-clip-56-55-70-20-0)" text-anchor="middle" font-size="13px"><text x="91" y="69.5">Passenger</text></g><rect x="1" y="190" width="180" height="90" fill="#ffffff" stroke="#000000" pointer-events="none"/><g fill="#000000" font-family="Helvetica" text-anchor="middle" font-size="12px"><text x="90.75" y="201.5">&lt;&lt;component&gt;&gt;</text></g><path d="M 158 197 L 174 197 L 174 217 L 158 217 L 158 213 L 154 213 L 154 209 L 158 209 L 158 205 L 154 205 L 154 201 L 158 201 Z" fill="#ffffff" stroke="#000000" stroke-miterlimit="10" pointer-events="none"/><path d="M 158 201 L 162 201 L 162 205 L 158 205 M 158 209 L 162 209 L 162 213 L 158 213" fill="none" stroke="#000000" stroke-miterlimit="10" pointer-events="none"/><g fill="#000000" font-family="Helvetica" font-weight="bold" clip-path="url(#mx-clip-56-205-70-20-0)" text-anchor="middle" font-size="13px"><text x="91" y="219.5">Taxi Driver</text></g><rect x="1" y="330" width="180" height="90" fill="#ffffff" stroke="#000000" pointer-events="none"/><g fill="#000000" font-family="Helvetica" text-anchor="middle" font-size="12px"><text x="90.75" y="341.5">&lt;&lt;component&gt;&gt;</text></g><path d="M 158 337 L 174 337 L 174 357 L 158 357 L 158 353 L 154 353 L 154 349 L 158 349 L 158 345 L 154 345 L 154 341 L 158 341 Z" fill="#ffffff" stroke="#000000" stroke-miterlimit="10" pointer-events="none"/><path d="M 158 341 L 162 341 L 162 345 L 158 345 M 158 349 L 162 349 L 162 353 L 158 353" fill="none" stroke="#000000" stroke-miterlimit="10" pointer-events="none"/><g fill="#000000" font-family="Helvetica" font-weight="bold" clip-path="url(#mx-clip-51-345-80-20-0)" text-anchor="middle" font-size="13px"><text x="91" y="359.5">Sys Admin</text></g><rect x="328" y="40" width="180" height="90" fill="#ffffff" stroke="#000000" pointer-events="none"/><g fill="#000000" font-family="Helvetica" text-anchor="middle" font-size="12px"><text x="417.75" y="51.5">&lt;&lt;component&gt;&gt;</text></g><path d="M 485 47 L 501 47 L 501 67 L 485 67 L 485 63 L 481 63 L 481 59 L 485 59 L 485 55 L 481 55 L 481 51 L 485 51 Z" fill="#ffffff" stroke="#000000" stroke-miterlimit="10" pointer-events="none"/><path d="M 485 51 L 489 51 L 489 55 L 485 55 M 485 59 L 489 59 L 489 63 L 485 63" fill="none" stroke="#000000" stroke-miterlimit="10" pointer-events="none"/><g fill="#000000" font-family="Helvetica" font-weight="bold" clip-path="url(#mx-clip-373-56-90-34-0)" text-anchor="middle" font-size="13px"><text x="418" y="69.5">Passenger UI</text><text x="418" y="85.5">Logic</text></g><rect x="328" y="190" width="180" height="90" fill="none" stroke="#000000" pointer-events="none"/><g fill="#000000" font-family="Helvetica" text-anchor="middle" font-size="12px"><text x="417.75" y="201.5">&lt;&lt;component&gt;&gt;</text></g><path d="M 485 197 L 501 197 L 501 217 L 485 217 L 485 213 L 481 213 L 481 209 L 485 209 L 485 205 L 481 205 L 481 201 L 485 201 Z" fill="#ffffff" stroke="#000000" stroke-miterlimit="10" pointer-events="none"/><path d="M 485 201 L 489 201 L 489 205 L 485 205 M 485 209 L 489 209 L 489 213 L 485 213" fill="none" stroke="#000000" stroke-miterlimit="10" pointer-events="none"/><g fill="#000000" font-family="Helvetica" font-weight="bold" clip-path="url(#mx-clip-373-205-90-45-0)" text-anchor="middle" font-size="13px"><text x="418" y="224">Taxi Driver UI</text><text x="418" y="240">Logic</text></g><rect x="328" y="330" width="180" height="90" fill="none" stroke="#000000" pointer-events="none"/><g fill="#000000" font-family="Helvetica" text-anchor="middle" font-size="12px"><text x="417.75" y="341.5">&lt;&lt;component&gt;&gt;</text></g><path d="M 485 337 L 501 337 L 501 357 L 485 357 L 485 353 L 481 353 L 481 349 L 485 349 L 485 345 L 481 345 L 481 341 L 485 341 Z" fill="#ffffff" stroke="#000000" stroke-miterlimit="10" pointer-events="none"/><path d="M 485 341 L 489 341 L 489 345 L 485 345 M 485 349 L 489 349 L 489 353 L 485 353" fill="none" stroke="#000000" stroke-miterlimit="10" pointer-events="none"/><g fill="#000000" font-family="Helvetica" font-weight="bold" clip-path="url(#mx-clip-373-345-90-45-0)" text-anchor="middle" font-size="13px"><text x="418" y="364">Sys Admin UI</text><text x="418" y="380">Logic</text></g><path d="M 228 47 L 228 126" fill="none" stroke="#000000" stroke-miterlimit="10" transform="rotate(90,228,80)" pointer-events="none"/><path d="M 220 39 Q 220 47 228 47 Q 236 47 236 39" fill="none" stroke="#000000" stroke-miterlimit="10" transform="rotate(90,228,80)" pointer-events="none"/><path d="M 226 341 L 226 418" fill="none" stroke="#000000" stroke-miterlimit="10" transform="rotate(90,226,373)" pointer-events="none"/><path d="M 218 333 Q 218 341 226 341 Q 234 341 234 333" fill="none" stroke="#000000" stroke-miterlimit="10" transform="rotate(90,226,373)" pointer-events="none"/><rect x="633" y="25" width="180" height="90" fill="none" stroke="#000000" pointer-events="none"/><g fill="#000000" font-family="Helvetica" text-anchor="middle" font-size="12px"><text x="722.75" y="36.5">&lt;&lt;component&gt;&gt;</text></g><path d="M 790 32 L 806 32 L 806 52 L 790 52 L 790 48 L 786 48 L 786 44 L 790 44 L 790 40 L 786 40 L 786 36 L 790 36 Z" fill="#ffffff" stroke="#000000" stroke-miterlimit="10" pointer-events="none"/><path d="M 790 36 L 794 36 L 794 40 L 790 40 M 790 44 L 794 44 L 794 48 L 790 48" fill="none" stroke="#000000" stroke-miterlimit="10" pointer-events="none"/><g fill="#000000" font-family="Helvetica" font-weight="bold" clip-path="url(#mx-clip-675-41-96-20-0)" text-anchor="middle" font-size="13px"><text x="723" y="55.5">Access Control</text></g><rect x="733" y="346" width="180" height="90" fill="none" stroke="#000000" pointer-events="none"/><g fill="#000000" font-family="Helvetica" text-anchor="middle" font-size="12px"><text x="822.75" y="357.5">&lt;&lt;component&gt;&gt;</text></g><path d="M 890 353 L 906 353 L 906 373 L 890 373 L 890 369 L 886 369 L 886 365 L 890 365 L 890 361 L 886 361 L 886 357 L 890 357 Z" fill="#ffffff" stroke="#000000" stroke-miterlimit="10" pointer-events="none"/><path d="M 890 357 L 894 357 L 894 361 L 890 361 M 890 365 L 894 365 L 894 369 L 890 369" fill="none" stroke="#000000" stroke-miterlimit="10" pointer-events="none"/><g fill="#000000" font-family="Helvetica" font-weight="bold" clip-path="url(#mx-clip-778-359-90-20-0)" text-anchor="middle" font-size="13px"><text x="823" y="373.5">Ride Manager</text></g><rect x="733" y="535" width="180" height="90" fill="none" stroke="#000000" pointer-events="none"/><g fill="#000000" font-family="Helvetica" text-anchor="middle" font-size="12px"><text x="822.75" y="546.5">&lt;&lt;component&gt;&gt;</text></g><path d="M 890 542 L 906 542 L 906 562 L 890 562 L 890 558 L 886 558 L 886 554 L 890 554 L 890 550 L 886 550 L 886 546 L 890 546 Z" fill="#ffffff" stroke="#000000" stroke-miterlimit="10" pointer-events="none"/><path d="M 890 546 L 894 546 L 894 550 L 890 550 M 890 554 L 894 554 L 894 558 L 890 558" fill="none" stroke="#000000" stroke-miterlimit="10" pointer-events="none"/><g fill="#000000" font-family="Helvetica" font-weight="bold" clip-path="url(#mx-clip-768-548-105-20-0)" text-anchor="middle" font-size="13px"><text x="820.5" y="562.5">Queue Manager</text></g><rect x="953" y="25" width="180" height="90" fill="none" stroke="#000000" pointer-events="none"/><g fill="#000000" font-family="Helvetica" text-anchor="middle" font-size="12px"><text x="1042.75" y="36.5">&lt;&lt;component&gt;&gt;</text></g><path d="M 1110 32 L 1126 32 L 1126 52 L 1110 52 L 1110 48 L 1106 48 L 1106 44 L 1110 44 L 1110 40 L 1106 40 L 1106 36 L 1110 36 Z" fill="#ffffff" stroke="#000000" stroke-miterlimit="10" pointer-events="none"/><path d="M 1110 36 L 1114 36 L 1114 40 L 1110 40 M 1110 44 L 1114 44 L 1114 48 L 1110 48" fill="none" stroke="#000000" stroke-miterlimit="10" pointer-events="none"/><g fill="#000000" font-family="Helvetica" font-weight="bold" clip-path="url(#mx-clip-993-40-98-35-0)" text-anchor="middle" font-size="13px"><text x="1042" y="54">myTaxiService</text><text x="1042" y="70">Database</text></g><path d="M 810 449 L 810 488" fill="none" stroke="#000000" stroke-miterlimit="10" transform="rotate(180,810,462)" pointer-events="none"/><path d="M 802 441 Q 802 449 810 449 Q 818 449 818 441" fill="none" stroke="#000000" stroke-miterlimit="10" transform="rotate(180,810,462)" pointer-events="none"/><ellipse cx="810" cy="484" rx="5" ry="5" fill="none" stroke="#000000" pointer-events="none"/><path d="M 810 489 L 810 535" fill="none" stroke="#000000" stroke-miterlimit="10" pointer-events="none"/><g fill="#000000" font-family="Helvetica" font-size="12px"><text x="698" y="511">Queue Manager</text><text x="698" y="525">Interface</text></g><path d="M 545.5 244.5 L 545.5 306.5" fill="none" stroke="#000000" stroke-miterlimit="10" transform="rotate(450,545.5,269)" pointer-events="none"/><path d="M 537.5 236.5 Q 537.5 244.5 545.5 244.5 Q 553.5 244.5 553.5 236.5" fill="none" stroke="#000000" stroke-miterlimit="10" transform="rotate(450,545.5,269)" pointer-events="none"/><path d="M 574 270 L 633 269.14 Q 643 269 643 279 L 643 475 Q 643 485 653 485 L 800.76 485" fill="none" stroke="#000000" stroke-miterlimit="10" stroke-dasharray="3 3" pointer-events="none"/><path d="M 794.88 488.5 L 801.88 485 L 794.88 481.5" fill="none" stroke="#000000" stroke-miterlimit="10" pointer-events="none"/><ellipse cx="918" cy="39" rx="5" ry="5" fill="none" stroke="#000000" transform="rotate(-90,918,69)" pointer-events="none"/><path d="M 918 44 L 918 104" fill="none" stroke="#000000" stroke-miterlimit="10" transform="rotate(-90,918,69)" pointer-events="none"/><path d="M 853 42 L 853 109" fill="none" stroke="#000000" stroke-miterlimit="10" transform="rotate(450,853,69)" pointer-events="none"/><path d="M 845 34 Q 845 42 853 42 Q 861 42 861 34" fill="none" stroke="#000000" stroke-miterlimit="10" transform="rotate(450,853,69)" pointer-events="none"/><ellipse cx="618" cy="96" rx="5" ry="5" fill="none" stroke="#000000" transform="rotate(270,618,106)" pointer-events="none"/><path d="M 618 101 L 618 121" fill="none" stroke="#000000" stroke-miterlimit="10" transform="rotate(270,618,106)" pointer-events="none"/><path d="M 536 70 L 536 111" fill="none" stroke="#000000" stroke-miterlimit="10" transform="rotate(90,536,84)" pointer-events="none"/><path d="M 528 62 Q 528 70 536 70 Q 544 70 544 62" fill="none" stroke="#000000" stroke-miterlimit="10" transform="rotate(90,536,84)" pointer-events="none"/><g fill="#000000" font-family="Helvetica" font-size="12px"><text x="535" y="57">Access Control</text><text x="535" y="71">Interface</text></g><path d="M 552 85 L 600.92 104.18" fill="none" stroke="#000000" stroke-miterlimit="10" stroke-dasharray="3 3" pointer-events="none"/><path d="M 594.16 105.29 L 601.96 104.59 L 596.72 98.78" fill="none" stroke="#000000" stroke-miterlimit="10" pointer-events="none"/><path d="M 541 187 L 541 238" fill="none" stroke="#000000" stroke-miterlimit="10" transform="rotate(90,541,206)" pointer-events="none"/><path d="M 533 179 Q 533 187 541 187 Q 549 187 549 179" fill="none" stroke="#000000" stroke-miterlimit="10" transform="rotate(90,541,206)" pointer-events="none"/><path d="M 563 208 L 594 208 Q 604 208 604 198 L 604 116.24" fill="none" stroke="#000000" stroke-miterlimit="10" stroke-dasharray="3 3" pointer-events="none"/><path d="M 607.5 122.12 L 604 115.12 L 600.5 122.12" fill="none" stroke="#000000" stroke-miterlimit="10" pointer-events="none"/><path d="M 572 351 L 603 351 Q 613 351 613 341 L 613 114.24" fill="none" stroke="#000000" stroke-miterlimit="10" stroke-dasharray="3 3" pointer-events="none"/><path d="M 616.5 120.12 L 613 113.12 L 609.5 120.12" fill="none" stroke="#000000" stroke-miterlimit="10" pointer-events="none"/><path d="M 546 325 L 546 386" fill="none" stroke="#000000" stroke-miterlimit="10" transform="rotate(90,546,349)" pointer-events="none"/><path d="M 538 317 Q 538 325 546 325 Q 554 325 554 317" fill="none" stroke="#000000" stroke-miterlimit="10" transform="rotate(90,546,349)" pointer-events="none"/><rect x="953" y="203" width="180" height="90" fill="none" stroke="#000000" pointer-events="none"/><g fill="#000000" font-family="Helvetica" text-anchor="middle" font-size="12px"><text x="1042.75" y="214.5">&lt;&lt;external component&gt;&gt;</text></g><path d="M 1110 210 L 1126 210 L 1126 230 L 1110 230 L 1110 226 L 1106 226 L 1106 222 L 1110 222 L 1110 218 L 1106 218 L 1106 214 L 1110 214 Z" fill="#ffffff" stroke="#000000" stroke-miterlimit="10" pointer-events="none"/><path d="M 1110 214 L 1114 214 L 1114 218 L 1110 218 M 1110 222 L 1114 222 L 1114 226 L 1110 226" fill="none" stroke="#000000" stroke-miterlimit="10" pointer-events="none"/><g fill="#000000" font-family="Helvetica" font-weight="bold" clip-path="url(#mx-clip-998-219-90-20-0)" text-anchor="middle" font-size="13px"><text x="1043" y="233.5">Maps Service</text></g><ellipse cx="933" cy="203" rx="5" ry="5" fill="none" stroke="#000000" transform="rotate(270,933,218)" pointer-events="none"/><path d="M 933 208 L 933 238" fill="none" stroke="#000000" stroke-miterlimit="10" transform="rotate(270,933,218)" pointer-events="none"/><g fill="#000000" font-family="Helvetica" font-size="12px"><text x="877" y="209">Maps API</text></g><path d="M 847 306 L 847 347" fill="none" stroke="#000000" stroke-miterlimit="10" pointer-events="none"/><path d="M 839 298 Q 839 306 847 306 Q 855 306 855 298" fill="none" stroke="#000000" stroke-miterlimit="10" pointer-events="none"/><path d="M 848 307 L 848 229 Q 848 219 858 219 L 910.76 219" fill="none" stroke="#000000" stroke-miterlimit="10" stroke-dasharray="3 3" pointer-events="none"/><path d="M 904.88 222.5 L 911.88 219 L 904.88 215.5" fill="none" stroke="#000000" stroke-miterlimit="10" pointer-events="none"/><ellipse cx="808" cy="305" rx="5" ry="5" fill="none" stroke="#000000" pointer-events="none"/><path d="M 808 310 L 808 346" fill="none" stroke="#000000" stroke-miterlimit="10" pointer-events="none"/><path d="M 534.5 103.5 L 534.5 143.5" fill="none" stroke="#000000" stroke-miterlimit="10" transform="rotate(90,534.5,117)" pointer-events="none"/><path d="M 526.5 95.5 Q 526.5 103.5 534.5 103.5 Q 542.5 103.5 542.5 95.5" fill="none" stroke="#000000" stroke-miterlimit="10" transform="rotate(90,534.5,117)" pointer-events="none"/><path d="M 551 119 L 798.46 196.99 Q 808 200 808 210 L 808 297.76" fill="none" stroke="#000000" stroke-miterlimit="10" stroke-dasharray="3 3" pointer-events="none"/><path d="M 804.5 291.88 L 808 298.88 L 811.5 291.88" fill="none" stroke="#000000" stroke-miterlimit="10" pointer-events="none"/><g fill="#000000" font-family="Helvetica" font-size="12px"><text x="710" y="325">Ride Manager</text><text x="710" y="339">Interface</text></g><g fill="#000000" font-family="Helvetica" font-size="12px"><text x="869" y="59">JDBC</text></g><g fill="#000000" font-family="Helvetica" font-size="12px"><text x="208" y="209">Taxi Driver UI</text><text x="208" y="223">Logic Interface</text></g><ellipse cx="297" cy="55" rx="5" ry="5" fill="none" stroke="#000000" transform="rotate(-90,297,80)" pointer-events="none"/><path d="M 297 60 L 297 110" fill="none" stroke="#000000" stroke-miterlimit="10" transform="rotate(-90,297,80)" pointer-events="none"/><g fill="#000000" font-family="Helvetica" font-size="12px"><text x="208" y="54">Passenger UI</text><text x="208" y="68">Logic Interface</text></g><g fill="#000000" font-family="Helvetica" font-size="12px"><text x="208" y="334">Sys Admin UI</text><text x="208" y="348">Logic Interface</text></g><ellipse cx="297" cy="348" rx="5" ry="5" fill="none" stroke="#000000" transform="rotate(-90,297,373)" pointer-events="none"/><path d="M 297 353 L 297 403" fill="none" stroke="#000000" stroke-miterlimit="10" transform="rotate(-90,297,373)" pointer-events="none"/></g></svg>