<?xml version="1.0" encoding="UTF-8"?>
<!DOCTYPE svg PUBLIC "-//W3C//DTD SVG 1.1//EN" "http://www.w3.org/Graphics/SVG/1.1/DTD/svg11.dtd">
<svg xmlns="http://www.w3.org/2000/svg" xmlns:xlink="http://www.w3.org/1999/xlink" width="1124px" height="714px" version="1.1" style="background-color: rgb(255, 255, 255);"><defs><clipPath id="mx-clip-60-515-100-20-0"><rect x="60" y="515" width="100" height="20"/></clipPath><clipPath id="mx-clip-70-357-80-20-0"><rect x="70" y="357" width="80" height="20"/></clipPath><clipPath id="mx-clip-75-170-70-20-0"><rect x="75" y="170" width="70" height="20"/></clipPath><clipPath id="mx-clip-460-120-40-20-0"><rect x="460" y="120" width="40" height="20"/></clipPath><clipPath id="mx-clip-753-240-94-20-0"><rect x="753" y="240" width="94" height="20"/></clipPath><clipPath id="mx-clip-753-120-94-20-0"><rect x="753" y="120" width="94" height="20"/></clipPath><clipPath id="mx-clip-955-130-130-50-0"><rect x="955" y="130" width="130" height="50"/></clipPath><clipPath id="mx-clip-753-357-97-20-0"><rect x="753" y="357" width="97" height="20"/></clipPath><clipPath id="mx-clip-737-640-117-40-0"><rect x="737" y="640" width="117" height="40"/></clipPath><clipPath id="mx-clip-438-175-94-20-0"><rect x="438" y="175" width="94" height="20"/></clipPath><clipPath id="mx-clip-438-297-94-20-0"><rect x="438" y="297" width="94" height="20"/></clipPath><clipPath id="mx-clip-438-414-94-20-0"><rect x="438" y="414" width="94" height="20"/></clipPath></defs><g transform="translate(0.5,0.5)"><path d="M 40 420 L 170 420 L 180 430 L 180 640 L 50 640 L 40 630 L 40 420 Z" fill="none" stroke="#000000" stroke-miterlimit="10" transform="rotate(90,110,530)" pointer-events="none"/><path d="M 50 640 L 50 430 L 40 420 M 50 430 L 180 430" fill="none" stroke="#000000" stroke-miterlimit="10" transform="rotate(90,110,530)" pointer-events="none"/><g fill="#000000" font-family="Helvetica" text-decoration="underline" text-anchor="middle" font-size="13px"><text x="104.96" y="487.5">:WebBrowser</text></g><rect x="20" y="503" width="180" height="90" fill="none" stroke="#000000" pointer-events="none"/><g fill="#000000" font-family="Helvetica" text-anchor="middle" font-size="12px"><text x="109.96" y="514.5">&lt;&lt;component&gt;&gt;</text></g><path d="M 177 510 L 193 510 L 193 530 L 177 530 L 177 526 L 173 526 L 173 522 L 177 522 L 177 518 L 173 518 L 173 514 L 177 514 Z" fill="#ffffff" stroke="#000000" stroke-miterlimit="10" pointer-events="none"/><path d="M 177 514 L 181 514 L 181 518 L 177 518 M 177 522 L 181 522 L 181 526 L 177 526" fill="none" stroke="#000000" stroke-miterlimit="10" pointer-events="none"/><g fill="#000000" font-family="Helvetica" font-weight="bold" clip-path="url(#mx-clip-60-515-100-20-0)" text-anchor="middle" font-size="13px"><text x="110" y="528">Sys Admin</text></g><path d="M 25 249 L 185 249 L 195 259 L 195 469 L 35 469 L 25 459 L 25 249 Z" fill="none" stroke="#000000" stroke-miterlimit="10" transform="rotate(90,110,359)" pointer-events="none"/><path d="M 35 469 L 35 259 L 25 249 M 35 259 L 195 259" fill="none" stroke="#000000" stroke-miterlimit="10" transform="rotate(90,110,359)" pointer-events="none"/><g fill="#000000" font-family="Helvetica" text-decoration="underline" text-anchor="middle" font-size="13px"><text x="104.96" y="301.5">&lt;&lt;device&gt;&gt;</text><text x="104.96" y="317.5">:Smartphone</text><text x="104.96" y="333.5">\{OS=Android\}</text></g><rect x="20" y="344" width="180" height="90" fill="none" stroke="#000000" pointer-events="none"/><g fill="#000000" font-family="Helvetica" text-anchor="middle" font-size="12px"><text x="109.96" y="355.5">&lt;&lt;component&gt;&gt;</text></g><path d="M 177 351 L 193 351 L 193 371 L 177 371 L 177 367 L 173 367 L 173 363 L 177 363 L 177 359 L 173 359 L 173 355 L 177 355 Z" fill="#ffffff" stroke="#000000" stroke-miterlimit="10" pointer-events="none"/><path d="M 177 355 L 181 355 L 181 359 L 177 359 M 177 363 L 181 363 L 181 367 L 177 367" fill="none" stroke="#000000" stroke-miterlimit="10" pointer-events="none"/><g fill="#000000" font-family="Helvetica" font-weight="bold" clip-path="url(#mx-clip-70-357-80-20-0)" text-anchor="middle" font-size="13px"><text x="110" y="370">Taxi Driver</text></g><path d="M 25 65 L 185 65 L 195 75 L 195 285 L 35 285 L 25 275 L 25 65 Z" fill="none" stroke="#000000" stroke-miterlimit="10" transform="rotate(90,110,175)" pointer-events="none"/><path d="M 35 285 L 35 75 L 25 65 M 35 75 L 195 75" fill="none" stroke="#000000" stroke-miterlimit="10" transform="rotate(90,110,175)" pointer-events="none"/><g fill="#000000" font-family="Helvetica" text-decoration="underline" text-anchor="middle" font-size="13px"><text x="104.96" y="117.5">&lt;&lt;device&gt;&gt;</text><text x="104.96" y="133.5">:Smartphone/</text><text x="104.96" y="149.5">Web Browser</text></g><rect x="20" y="160" width="180" height="90" fill="none" stroke="#000000" pointer-events="none"/><g fill="#000000" font-family="Helvetica" text-anchor="middle" font-size="12px"><text x="109.96" y="171.5">&lt;&lt;component&gt;&gt;</text></g><path d="M 177 167 L 193 167 L 193 187 L 177 187 L 177 183 L 173 183 L 173 179 L 177 179 L 177 175 L 173 175 L 173 171 L 177 171 Z" fill="#ffffff" stroke="#000000" stroke-miterlimit="10" pointer-events="none"/><path d="M 177 171 L 181 171 L 181 175 L 177 175 M 177 179 L 181 179 L 181 183 L 177 183" fill="none" stroke="#000000" stroke-miterlimit="10" pointer-events="none"/><g fill="#000000" font-family="Helvetica" font-weight="bold" clip-path="url(#mx-clip-75-170-70-20-0)" text-anchor="middle" font-size="13px"><text x="110" y="184.5">Passenger</text></g><path d="M 240 140 L 720 140 L 730 150 L 730 430 L 250 430 L 240 420 L 240 140 Z" fill="none" stroke="#000000" stroke-miterlimit="10" transform="rotate(90,485,285)" pointer-events="none"/><path d="M 250 430 L 250 150 L 240 140 M 250 150 L 730 150" fill="none" stroke="#000000" stroke-miterlimit="10" transform="rotate(90,485,285)" pointer-events="none"/><g fill="#000000" font-family="Helvetica" text-decoration="underline" text-anchor="middle" font-size="13px"><text x="479.96" y="67.5">&lt;&lt;device&gt;&gt;</text><text x="479.96" y="83.5">:PresentationServer</text><text x="479.96" y="99.5">\{OS=Linux\}</text></g><rect x="350" y="110" width="260" height="410" fill="none" stroke="#000000" pointer-events="none"/><g fill="#000000" font-family="Helvetica" text-anchor="middle" font-size="12px"><text x="479.96" y="121.5">&lt;&lt;component&gt;&gt;</text></g><path d="M 587 117 L 603 117 L 603 137 L 587 137 L 587 133 L 583 133 L 583 129 L 587 129 L 587 125 L 583 125 L 583 121 L 587 121 Z" fill="#ffffff" stroke="#000000" stroke-miterlimit="10" pointer-events="none"/><path d="M 587 121 L 591 121 L 591 125 L 587 125 M 587 129 L 591 129 L 591 133 L 587 133" fill="none" stroke="#000000" stroke-miterlimit="10" pointer-events="none"/><rect x="395" y="397" width="180" height="93" fill="none" stroke="#000000" pointer-events="none"/><g fill="#000000" font-family="Helvetica" text-anchor="middle" font-size="12px"><text x="484.96" y="408.5">&lt;&lt;component&gt;&gt;</text></g><path d="M 552 404 L 568 404 L 568 424 L 552 424 L 552 420 L 548 420 L 548 416 L 552 416 L 552 412 L 548 412 L 548 408 L 552 408 Z" fill="#ffffff" stroke="#000000" stroke-miterlimit="10" pointer-events="none"/><path d="M 552 408 L 556 408 L 556 412 L 552 412 M 552 416 L 556 416 L 556 420 L 552 420" fill="none" stroke="#000000" stroke-miterlimit="10" pointer-events="none"/><rect x="395" y="284" width="180" height="93" fill="none" stroke="#000000" pointer-events="none"/><g fill="#000000" font-family="Helvetica" text-anchor="middle" font-size="12px"><text x="484.96" y="295.5">&lt;&lt;component&gt;&gt;</text></g><path d="M 552 291 L 568 291 L 568 311 L 552 311 L 552 307 L 548 307 L 548 303 L 552 303 L 552 299 L 548 299 L 548 295 L 552 295 Z" fill="#ffffff" stroke="#000000" stroke-miterlimit="10" pointer-events="none"/><path d="M 552 295 L 556 295 L 556 299 L 552 299 M 552 303 L 556 303 L 556 307 L 552 307" fill="none" stroke="#000000" stroke-miterlimit="10" pointer-events="none"/><rect x="395" y="160" width="180" height="105" fill="none" stroke="#000000" pointer-events="none"/><g fill="#000000" font-family="Helvetica" text-anchor="middle" font-size="12px"><text x="484.96" y="171.5">&lt;&lt;component&gt;&gt;</text></g><path d="M 552 167 L 568 167 L 568 187 L 552 187 L 552 183 L 548 183 L 548 179 L 552 179 L 552 175 L 548 175 L 548 171 L 552 171 Z" fill="#ffffff" stroke="#000000" stroke-miterlimit="10" pointer-events="none"/><path d="M 552 171 L 556 171 L 556 175 L 552 175 M 552 179 L 556 179 L 556 183 L 552 183" fill="none" stroke="#000000" stroke-miterlimit="10" pointer-events="none"/><g fill="#000000" font-family="Helvetica" font-weight="bold" clip-path="url(#mx-clip-460-120-40-20-0)" text-anchor="middle" font-size="13px"><text x="480" y="134.5">GUI</text></g><path d="M 220 358.09 L 340.02 357.09" fill="none" stroke="#000000" stroke-miterlimit="10" pointer-events="none"/><g fill="#000000" font-family="Helvetica" font-size="12px"><text x="248" y="373">&lt;&lt;SOAP&gt;&gt;</text></g><path d="M 221.05 507.09 L 339.05 506.93" fill="none" stroke="#000000" stroke-miterlimit="10" pointer-events="none"/><g fill="#000000" font-family="Helvetica" font-size="12px"><text x="252" y="504">&lt;&lt;HTTPS&gt;&gt;</text></g><path d="M 220.08 132.5 L 340.02 132.66" fill="none" stroke="#000000" stroke-miterlimit="10" pointer-events="none"/><g fill="#000000" font-family="Helvetica" font-size="12px"><text x="222" y="149">&lt;&lt;SOAP/HTTPS&gt;&gt;</text></g><path d="M 590 140 L 1000 140 L 1010 150 L 1010 360 L 600 360 L 590 350 L 590 140 Z" fill="none" stroke="#000000" stroke-miterlimit="10" transform="rotate(90,800,250)" pointer-events="none"/><path d="M 600 360 L 600 150 L 590 140 M 600 150 L 1010 150" fill="none" stroke="#000000" stroke-miterlimit="10" transform="rotate(90,800,250)" pointer-events="none"/><g fill="#000000" font-family="Helvetica" text-decoration="underline" text-anchor="middle" font-size="13px"><text x="794.96" y="67.5">&lt;&lt;device&gt;&gt;</text><text x="794.96" y="83.5">:ApplicationServer</text><text x="794.96" y="99.5">\{OS = Linux\}</text></g><rect x="710" y="228" width="180" height="93" fill="none" stroke="#000000" pointer-events="none"/><g fill="#000000" font-family="Helvetica" text-anchor="middle" font-size="12px"><text x="799.96" y="239.5">&lt;&lt;component&gt;&gt;</text></g><path d="M 867 235 L 883 235 L 883 255 L 867 255 L 867 251 L 863 251 L 863 247 L 867 247 L 867 243 L 863 243 L 863 239 L 867 239 Z" fill="#ffffff" stroke="#000000" stroke-miterlimit="10" pointer-events="none"/><path d="M 867 239 L 871 239 L 871 243 L 867 243 M 867 247 L 871 247 L 871 251 L 867 251" fill="none" stroke="#000000" stroke-miterlimit="10" pointer-events="none"/><g fill="#000000" font-family="Helvetica" font-weight="bold" clip-path="url(#mx-clip-753-240-94-20-0)" text-anchor="middle" font-size="13px"><text x="800" y="254.5">Access Control</text></g><rect x="710" y="108" width="180" height="105" fill="none" stroke="#000000" pointer-events="none"/><g fill="#000000" font-family="Helvetica" text-anchor="middle" font-size="12px"><text x="799.96" y="119.5">&lt;&lt;component&gt;&gt;</text></g><path d="M 867 115 L 883 115 L 883 135 L 867 135 L 867 131 L 863 131 L 863 127 L 867 127 L 867 123 L 863 123 L 863 119 L 867 119 Z" fill="#ffffff" stroke="#000000" stroke-miterlimit="10" pointer-events="none"/><path d="M 867 119 L 871 119 L 871 123 L 867 123 M 867 127 L 871 127 L 871 131 L 867 131" fill="none" stroke="#000000" stroke-miterlimit="10" pointer-events="none"/><g fill="#000000" font-family="Helvetica" font-weight="bold" clip-path="url(#mx-clip-753-120-94-20-0)" text-anchor="middle" font-size="13px"><text x="800" y="134.5">Ride Manager</text></g><path d="M 630 201 L 689.86 201.31" fill="none" stroke="#000000" stroke-miterlimit="10" pointer-events="none"/><g fill="#000000" font-family="Helvetica" font-size="12px"><text x="632" y="194">&lt;&lt;EJB&gt;&gt;</text></g><path d="M 945 25 L 1095 25 L 1105 35 L 1105 215 L 955 215 L 945 205 L 945 25 Z" fill="none" stroke="#000000" stroke-miterlimit="10" transform="rotate(90,1025,120)" pointer-events="none"/><path d="M 955 215 L 955 35 L 945 25 M 955 35 L 1105 35" fill="none" stroke="#000000" stroke-miterlimit="10" transform="rotate(90,1025,120)" pointer-events="none"/><g fill="#000000" font-family="Helvetica" text-decoration="underline" text-anchor="middle" font-size="13px"><text x="1019.96" y="67.5">&lt;&lt;device&gt;&gt;</text><text x="1019.96" y="83.5">:DBServer</text><text x="1019.96" y="99.5">\{OS: Linux\}</text></g><rect x="940" y="110" width="160" height="80" fill="none" stroke="#000000" pointer-events="none"/><g fill="#000000" font-family="Helvetica" text-anchor="middle" font-size="12px"><text x="1019.96" y="121.5">&lt;&lt;component&gt;&gt;</text></g><path d="M 1077 117 L 1093 117 L 1093 137 L 1077 137 L 1077 133 L 1073 133 L 1073 129 L 1077 129 L 1077 125 L 1073 125 L 1073 121 L 1077 121 Z" fill="#ffffff" stroke="#000000" stroke-miterlimit="10" pointer-events="none"/><path d="M 1077 121 L 1081 121 L 1081 125 L 1077 125 M 1077 129 L 1081 129 L 1081 133 L 1077 133" fill="none" stroke="#000000" stroke-miterlimit="10" pointer-events="none"/><g fill="#000000" font-family="Helvetica" font-weight="bold" clip-path="url(#mx-clip-955-130-130-50-0)" text-anchor="middle" font-size="13px"><text x="1020" y="143.5">myTaxiService</text><text x="1020" y="159.5">Database</text><text x="1020" y="175.5">\{Vendor: MariaDB\}</text></g><path d="M 799.98 40.05 L 800 10 Q 800 0 810 0 L 1015 0 Q 1025 0 1025.02 10 L 1025.06 40.05" fill="none" stroke="#000000" stroke-miterlimit="10" pointer-events="none"/><g fill="#000000" font-family="Helvetica" font-size="12px"><text x="877" y="14">&lt;&lt;JDBC&gt;&gt;</text></g><rect x="710" y="341" width="180" height="93" fill="none" stroke="#000000" pointer-events="none"/><g fill="#000000" font-family="Helvetica" text-anchor="middle" font-size="12px"><text x="799.96" y="352.5">&lt;&lt;component&gt;&gt;</text></g><path d="M 867 348 L 883 348 L 883 368 L 867 368 L 867 364 L 863 364 L 863 360 L 867 360 L 867 356 L 863 356 L 863 352 L 867 352 Z" fill="#ffffff" stroke="#000000" stroke-miterlimit="10" pointer-events="none"/><path d="M 867 352 L 871 352 L 871 356 L 867 356 M 867 360 L 871 360 L 871 364 L 867 364" fill="none" stroke="#000000" stroke-miterlimit="10" pointer-events="none"/><g fill="#000000" font-family="Helvetica" font-weight="bold" clip-path="url(#mx-clip-753-357-97-20-0)" text-anchor="middle" font-size="13px"><text x="801.5" y="370">Queue Manager</text></g><path d="M 720 536 L 870 536 L 880 546 L 880 726 L 730 726 L 720 716 L 720 536 Z" fill="none" stroke="#000000" stroke-miterlimit="10" transform="rotate(90,800,631)" pointer-events="none"/><path d="M 730 726 L 730 546 L 720 536 M 730 546 L 880 546" fill="none" stroke="#000000" stroke-miterlimit="10" transform="rotate(90,800,631)" pointer-events="none"/><g fill="#000000" font-family="Helvetica" text-decoration="underline" text-anchor="middle" font-size="13px"><text x="794.96" y="578.5">&lt;&lt;external device&gt;&gt;</text><text x="794.96" y="594.5">:MapsServer</text></g><rect x="715" y="621" width="160" height="80" fill="none" stroke="#000000" pointer-events="none"/><g fill="#000000" font-family="Helvetica" text-anchor="middle" font-size="12px"><text x="794.96" y="632.5">&lt;&lt;component&gt;&gt;</text></g><path d="M 852 628 L 868 628 L 868 648 L 852 648 L 852 644 L 848 644 L 848 640 L 852 640 L 852 636 L 848 636 L 848 632 L 852 632 Z" fill="#ffffff" stroke="#000000" stroke-miterlimit="10" pointer-events="none"/><path d="M 852 632 L 856 632 L 856 636 L 852 636 M 852 640 L 856 640 L 856 644 L 852 644" fill="none" stroke="#000000" stroke-miterlimit="10" pointer-events="none"/><g fill="#000000" font-family="Helvetica" font-weight="bold" clip-path="url(#mx-clip-737-640-117-40-0)" text-anchor="middle" font-size="13px"><text x="795.5" y="653">Maps API</text><text x="795.5" y="669">\{Vendor: Google\}</text></g><path d="M 799.98 459.99 L 799.98 550.98" fill="none" stroke="#000000" stroke-miterlimit="10" pointer-events="none"/><g fill="#000000" font-family="Helvetica" font-size="12px"><text x="802" y="519">&lt;&lt;JSON&gt;&gt;</text></g><g fill="#000000" font-family="Helvetica" font-weight="bold" clip-path="url(#mx-clip-438-175-94-20-0)" text-anchor="middle" font-size="13px"><text x="485" y="188">Passenger UI</text></g><g fill="#000000" font-family="Helvetica" font-weight="bold" clip-path="url(#mx-clip-438-297-94-20-0)" text-anchor="middle" font-size="13px"><text x="485" y="310">Taxi Driver UI</text></g><g fill="#000000" font-family="Helvetica" font-weight="bold" clip-path="url(#mx-clip-438-414-94-20-0)" text-anchor="middle" font-size="13px"><text x="485" y="427">Sys Admin UI</text></g></g></svg>