<?xml version="1.0" encoding="UTF-8"?>
<!DOCTYPE svg PUBLIC "-//W3C//DTD SVG 1.1//EN" "http://www.w3.org/Graphics/SVG/1.1/DTD/svg11.dtd">
<svg xmlns="http://www.w3.org/2000/svg" xmlns:xlink="http://www.w3.org/1999/xlink" width="1123px" height="714px" version="1.1" style="background-color: rgb(255, 255, 255);"><defs><clipPath id="mx-clip-61-516-100-20-0"><rect x="61" y="516" width="100" height="20"/></clipPath><clipPath id="mx-clip-71-358-80-20-0"><rect x="71" y="358" width="80" height="20"/></clipPath><clipPath id="mx-clip-76-171-70-20-0"><rect x="76" y="171" width="70" height="20"/></clipPath><clipPath id="mx-clip-461-121-40-20-0"><rect x="461" y="121" width="40" height="20"/></clipPath><clipPath id="mx-clip-754-241-94-20-0"><rect x="754" y="241" width="94" height="20"/></clipPath><clipPath id="mx-clip-754-121-94-20-0"><rect x="754" y="121" width="94" height="20"/></clipPath><clipPath id="mx-clip-956-131-130-50-0"><rect x="956" y="131" width="130" height="50"/></clipPath><clipPath id="mx-clip-754-358-97-20-0"><rect x="754" y="358" width="97" height="20"/></clipPath><clipPath id="mx-clip-738-641-117-40-0"><rect x="738" y="641" width="117" height="40"/></clipPath><clipPath id="mx-clip-439-176-94-20-0"><rect x="439" y="176" width="94" height="20"/></clipPath><clipPath id="mx-clip-439-298-94-20-0"><rect x="439" y="298" width="94" height="20"/></clipPath><clipPath id="mx-clip-439-415-94-20-0"><rect x="439" y="415" width="94" height="20"/></clipPath><clipPath id="mx-clip-961-331-130-40-0"><rect x="961" y="331" width="130" height="40"/></clipPath></defs><g transform="translate(0.5,0.5)"><path d="M 41 421 L 171 421 L 181 431 L 181 641 L 51 641 L 41 631 L 41 421 Z" fill="none" stroke="#000000" stroke-miterlimit="10" transform="rotate(90,111,531)" pointer-events="none"/><path d="M 51 641 L 51 431 L 41 421 M 51 431 L 181 431" fill="none" stroke="#000000" stroke-miterlimit="10" transform="rotate(90,111,531)" pointer-events="none"/><g fill="#000000" font-family="Helvetica" text-decoration="underline" text-anchor="middle" font-size="13px"><text x="105.75" y="488.5">:WebBrowser</text></g><rect x="21" y="504" width="180" height="90" fill="none" stroke="#000000" pointer-events="none"/><g fill="#000000" font-family="Helvetica" text-anchor="middle" font-size="12px"><text x="110.75" y="515.5">&lt;&lt;component&gt;&gt;</text></g><path d="M 178 511 L 194 511 L 194 531 L 178 531 L 178 527 L 174 527 L 174 523 L 178 523 L 178 519 L 174 519 L 174 515 L 178 515 Z" fill="#ffffff" stroke="#000000" stroke-miterlimit="10" pointer-events="none"/><path d="M 178 515 L 182 515 L 182 519 L 178 519 M 178 523 L 182 523 L 182 527 L 178 527" fill="none" stroke="#000000" stroke-miterlimit="10" pointer-events="none"/><g fill="#000000" font-family="Helvetica" font-weight="bold" clip-path="url(#mx-clip-61-516-100-20-0)" text-anchor="middle" font-size="13px"><text x="111" y="529">Sys Admin</text></g><path d="M 26 250 L 186 250 L 196 260 L 196 470 L 36 470 L 26 460 L 26 250 Z" fill="none" stroke="#000000" stroke-miterlimit="10" transform="rotate(90,111,360)" pointer-events="none"/><path d="M 36 470 L 36 260 L 26 250 M 36 260 L 196 260" fill="none" stroke="#000000" stroke-miterlimit="10" transform="rotate(90,111,360)" pointer-events="none"/><g fill="#000000" font-family="Helvetica" text-decoration="underline" text-anchor="middle" font-size="13px"><text x="105.75" y="302.5">&lt;&lt;device&gt;&gt;</text><text x="105.75" y="318.5">:Smartphone</text><text x="105.75" y="334.5">\{OS=Android\}</text></g><rect x="21" y="345" width="180" height="90" fill="none" stroke="#000000" pointer-events="none"/><g fill="#000000" font-family="Helvetica" text-anchor="middle" font-size="12px"><text x="110.75" y="356.5">&lt;&lt;component&gt;&gt;</text></g><path d="M 178 352 L 194 352 L 194 372 L 178 372 L 178 368 L 174 368 L 174 364 L 178 364 L 178 360 L 174 360 L 174 356 L 178 356 Z" fill="#ffffff" stroke="#000000" stroke-miterlimit="10" pointer-events="none"/><path d="M 178 356 L 182 356 L 182 360 L 178 360 M 178 364 L 182 364 L 182 368 L 178 368" fill="none" stroke="#000000" stroke-miterlimit="10" pointer-events="none"/><g fill="#000000" font-family="Helvetica" font-weight="bold" clip-path="url(#mx-clip-71-358-80-20-0)" text-anchor="middle" font-size="13px"><text x="111" y="371">Taxi Driver</text></g><path d="M 26 66 L 186 66 L 196 76 L 196 286 L 36 286 L 26 276 L 26 66 Z" fill="none" stroke="#000000" stroke-miterlimit="10" transform="rotate(90,111,176)" pointer-events="none"/><path d="M 36 286 L 36 76 L 26 66 M 36 76 L 196 76" fill="none" stroke="#000000" stroke-miterlimit="10" transform="rotate(90,111,176)" pointer-events="none"/><g fill="#000000" font-family="Helvetica" text-decoration="underline" text-anchor="middle" font-size="13px"><text x="105.75" y="118.5">&lt;&lt;device&gt;&gt;</text><text x="105.75" y="134.5">:Smartphone/</text><text x="105.75" y="150.5">Web Browser</text></g><rect x="21" y="161" width="180" height="90" fill="none" stroke="#000000" pointer-events="none"/><g fill="#000000" font-family="Helvetica" text-anchor="middle" font-size="12px"><text x="110.75" y="172.5">&lt;&lt;component&gt;&gt;</text></g><path d="M 178 168 L 194 168 L 194 188 L 178 188 L 178 184 L 174 184 L 174 180 L 178 180 L 178 176 L 174 176 L 174 172 L 178 172 Z" fill="#ffffff" stroke="#000000" stroke-miterlimit="10" pointer-events="none"/><path d="M 178 172 L 182 172 L 182 176 L 178 176 M 178 180 L 182 180 L 182 184 L 178 184" fill="none" stroke="#000000" stroke-miterlimit="10" pointer-events="none"/><g fill="#000000" font-family="Helvetica" font-weight="bold" clip-path="url(#mx-clip-76-171-70-20-0)" text-anchor="middle" font-size="13px"><text x="111" y="185.5">Passenger</text></g><path d="M 241 141 L 721 141 L 731 151 L 731 431 L 251 431 L 241 421 L 241 141 Z" fill="none" stroke="#000000" stroke-miterlimit="10" transform="rotate(90,486,286)" pointer-events="none"/><path d="M 251 431 L 251 151 L 241 141 M 251 151 L 731 151" fill="none" stroke="#000000" stroke-miterlimit="10" transform="rotate(90,486,286)" pointer-events="none"/><g fill="#000000" font-family="Helvetica" text-decoration="underline" text-anchor="middle" font-size="13px"><text x="480.75" y="68.5">&lt;&lt;device&gt;&gt;</text><text x="480.75" y="84.5">:PresentationServer</text><text x="480.75" y="100.5">\{OS=Linux\}</text></g><rect x="351" y="111" width="260" height="410" fill="none" stroke="#000000" pointer-events="none"/><g fill="#000000" font-family="Helvetica" text-anchor="middle" font-size="12px"><text x="480.75" y="122.5">&lt;&lt;component&gt;&gt;</text></g><path d="M 588 118 L 604 118 L 604 138 L 588 138 L 588 134 L 584 134 L 584 130 L 588 130 L 588 126 L 584 126 L 584 122 L 588 122 Z" fill="#ffffff" stroke="#000000" stroke-miterlimit="10" pointer-events="none"/><path d="M 588 122 L 592 122 L 592 126 L 588 126 M 588 130 L 592 130 L 592 134 L 588 134" fill="none" stroke="#000000" stroke-miterlimit="10" pointer-events="none"/><rect x="396" y="398" width="180" height="93" fill="none" stroke="#000000" pointer-events="none"/><g fill="#000000" font-family="Helvetica" text-anchor="middle" font-size="12px"><text x="485.75" y="409.5">&lt;&lt;component&gt;&gt;</text></g><path d="M 553 405 L 569 405 L 569 425 L 553 425 L 553 421 L 549 421 L 549 417 L 553 417 L 553 413 L 549 413 L 549 409 L 553 409 Z" fill="#ffffff" stroke="#000000" stroke-miterlimit="10" pointer-events="none"/><path d="M 553 409 L 557 409 L 557 413 L 553 413 M 553 417 L 557 417 L 557 421 L 553 421" fill="none" stroke="#000000" stroke-miterlimit="10" pointer-events="none"/><rect x="396" y="285" width="180" height="93" fill="none" stroke="#000000" pointer-events="none"/><g fill="#000000" font-family="Helvetica" text-anchor="middle" font-size="12px"><text x="485.75" y="296.5">&lt;&lt;component&gt;&gt;</text></g><path d="M 553 292 L 569 292 L 569 312 L 553 312 L 553 308 L 549 308 L 549 304 L 553 304 L 553 300 L 549 300 L 549 296 L 553 296 Z" fill="#ffffff" stroke="#000000" stroke-miterlimit="10" pointer-events="none"/><path d="M 553 296 L 557 296 L 557 300 L 553 300 M 553 304 L 557 304 L 557 308 L 553 308" fill="none" stroke="#000000" stroke-miterlimit="10" pointer-events="none"/><rect x="396" y="161" width="180" height="105" fill="none" stroke="#000000" pointer-events="none"/><g fill="#000000" font-family="Helvetica" text-anchor="middle" font-size="12px"><text x="485.75" y="172.5">&lt;&lt;component&gt;&gt;</text></g><path d="M 553 168 L 569 168 L 569 188 L 553 188 L 553 184 L 549 184 L 549 180 L 553 180 L 553 176 L 549 176 L 549 172 L 553 172 Z" fill="#ffffff" stroke="#000000" stroke-miterlimit="10" pointer-events="none"/><path d="M 553 172 L 557 172 L 557 176 L 553 176 M 553 180 L 557 180 L 557 184 L 553 184" fill="none" stroke="#000000" stroke-miterlimit="10" pointer-events="none"/><g fill="#000000" font-family="Helvetica" font-weight="bold" clip-path="url(#mx-clip-461-121-40-20-0)" text-anchor="middle" font-size="13px"><text x="481" y="135.5">GUI</text></g><path d="M 221 359.04 L 341 358" fill="none" stroke="#000000" stroke-miterlimit="10" pointer-events="none"/><g fill="#000000" font-family="Helvetica" font-size="12px"><text x="249" y="374">&lt;&lt;SOAP&gt;&gt;</text></g><path d="M 222 508 L 340 508" fill="none" stroke="#000000" stroke-miterlimit="10" pointer-events="none"/><g fill="#000000" font-family="Helvetica" font-size="12px"><text x="253" y="505">&lt;&lt;HTTPS&gt;&gt;</text></g><path d="M 221.08 133.5 L 341 134" fill="none" stroke="#000000" stroke-miterlimit="10" pointer-events="none"/><g fill="#000000" font-family="Helvetica" font-size="12px"><text x="223" y="150">&lt;&lt;SOAP/HTTPS&gt;&gt;</text></g><path d="M 591 141 L 1001 141 L 1011 151 L 1011 361 L 601 361 L 591 351 L 591 141 Z" fill="none" stroke="#000000" stroke-miterlimit="10" transform="rotate(90,801,251)" pointer-events="none"/><path d="M 601 361 L 601 151 L 591 141 M 601 151 L 1011 151" fill="none" stroke="#000000" stroke-miterlimit="10" transform="rotate(90,801,251)" pointer-events="none"/><g fill="#000000" font-family="Helvetica" text-decoration="underline" text-anchor="middle" font-size="13px"><text x="795.75" y="68.5">&lt;&lt;device&gt;&gt;</text><text x="795.75" y="84.5">:ApplicationServer</text><text x="795.75" y="100.5">\{OS = Linux\}</text></g><rect x="711" y="229" width="180" height="93" fill="none" stroke="#000000" pointer-events="none"/><g fill="#000000" font-family="Helvetica" text-anchor="middle" font-size="12px"><text x="800.75" y="240.5">&lt;&lt;component&gt;&gt;</text></g><path d="M 868 236 L 884 236 L 884 256 L 868 256 L 868 252 L 864 252 L 864 248 L 868 248 L 868 244 L 864 244 L 864 240 L 868 240 Z" fill="#ffffff" stroke="#000000" stroke-miterlimit="10" pointer-events="none"/><path d="M 868 240 L 872 240 L 872 244 L 868 244 M 868 248 L 872 248 L 872 252 L 868 252" fill="none" stroke="#000000" stroke-miterlimit="10" pointer-events="none"/><g fill="#000000" font-family="Helvetica" font-weight="bold" clip-path="url(#mx-clip-754-241-94-20-0)" text-anchor="middle" font-size="13px"><text x="801" y="255.5">Access Control</text></g><rect x="711" y="109" width="180" height="105" fill="none" stroke="#000000" pointer-events="none"/><g fill="#000000" font-family="Helvetica" text-anchor="middle" font-size="12px"><text x="800.75" y="120.5">&lt;&lt;component&gt;&gt;</text></g><path d="M 868 116 L 884 116 L 884 136 L 868 136 L 868 132 L 864 132 L 864 128 L 868 128 L 868 124 L 864 124 L 864 120 L 868 120 Z" fill="#ffffff" stroke="#000000" stroke-miterlimit="10" pointer-events="none"/><path d="M 868 120 L 872 120 L 872 124 L 868 124 M 868 128 L 872 128 L 872 132 L 868 132" fill="none" stroke="#000000" stroke-miterlimit="10" pointer-events="none"/><g fill="#000000" font-family="Helvetica" font-weight="bold" clip-path="url(#mx-clip-754-121-94-20-0)" text-anchor="middle" font-size="13px"><text x="801" y="135.5">Ride Manager</text></g><path d="M 631 202 L 691 202" fill="none" stroke="#000000" stroke-miterlimit="10" pointer-events="none"/><g fill="#000000" font-family="Helvetica" font-size="12px"><text x="633" y="195">&lt;&lt;EJB&gt;&gt;</text></g><path d="M 946 26 L 1096 26 L 1106 36 L 1106 216 L 956 216 L 946 206 L 946 26 Z" fill="none" stroke="#000000" stroke-miterlimit="10" transform="rotate(90,1026,121)" pointer-events="none"/><path d="M 956 216 L 956 36 L 946 26 M 956 36 L 1106 36" fill="none" stroke="#000000" stroke-miterlimit="10" transform="rotate(90,1026,121)" pointer-events="none"/><g fill="#000000" font-family="Helvetica" text-decoration="underline" text-anchor="middle" font-size="13px"><text x="1020.75" y="68.5">&lt;&lt;device&gt;&gt;</text><text x="1020.75" y="84.5">:DBServer</text><text x="1020.75" y="100.5">\{OS: Linux\}</text></g><rect x="941" y="111" width="160" height="80" fill="none" stroke="#000000" pointer-events="none"/><g fill="#000000" font-family="Helvetica" text-anchor="middle" font-size="12px"><text x="1020.75" y="122.5">&lt;&lt;component&gt;&gt;</text></g><path d="M 1078 118 L 1094 118 L 1094 138 L 1078 138 L 1078 134 L 1074 134 L 1074 130 L 1078 130 L 1078 126 L 1074 126 L 1074 122 L 1078 122 Z" fill="#ffffff" stroke="#000000" stroke-miterlimit="10" pointer-events="none"/><path d="M 1078 122 L 1082 122 L 1082 126 L 1078 126 M 1078 130 L 1082 130 L 1082 134 L 1078 134" fill="none" stroke="#000000" stroke-miterlimit="10" pointer-events="none"/><g fill="#000000" font-family="Helvetica" font-weight="bold" clip-path="url(#mx-clip-956-131-130-50-0)" text-anchor="middle" font-size="13px"><text x="1021" y="144.5">myTaxiService</text><text x="1021" y="160.5">Database</text><text x="1021" y="176.5">\{Vendor: MariaDB\}</text></g><path d="M 801 41 L 801 11 Q 801 1 811 1 L 1016 1 Q 1026 1 1026 11 L 1026 41" fill="none" stroke="#000000" stroke-miterlimit="10" pointer-events="none"/><g fill="#000000" font-family="Helvetica" font-size="12px"><text x="878" y="15">&lt;&lt;JDBC&gt;&gt;</text></g><rect x="711" y="342" width="180" height="93" fill="none" stroke="#000000" pointer-events="none"/><g fill="#000000" font-family="Helvetica" text-anchor="middle" font-size="12px"><text x="800.75" y="353.5">&lt;&lt;component&gt;&gt;</text></g><path d="M 868 349 L 884 349 L 884 369 L 868 369 L 868 365 L 864 365 L 864 361 L 868 361 L 868 357 L 864 357 L 864 353 L 868 353 Z" fill="#ffffff" stroke="#000000" stroke-miterlimit="10" pointer-events="none"/><path d="M 868 353 L 872 353 L 872 357 L 868 357 M 868 361 L 872 361 L 872 365 L 868 365" fill="none" stroke="#000000" stroke-miterlimit="10" pointer-events="none"/><g fill="#000000" font-family="Helvetica" font-weight="bold" clip-path="url(#mx-clip-754-358-97-20-0)" text-anchor="middle" font-size="13px"><text x="802.5" y="371">Queue Manager</text></g><path d="M 721 537 L 871 537 L 881 547 L 881 727 L 731 727 L 721 717 L 721 537 Z" fill="none" stroke="#000000" stroke-miterlimit="10" transform="rotate(90,801,632)" pointer-events="none"/><path d="M 731 727 L 731 547 L 721 537 M 731 547 L 881 547" fill="none" stroke="#000000" stroke-miterlimit="10" transform="rotate(90,801,632)" pointer-events="none"/><g fill="#000000" font-family="Helvetica" text-decoration="underline" text-anchor="middle" font-size="13px"><text x="795.75" y="579.5">&lt;&lt;external device&gt;&gt;</text><text x="795.75" y="595.5">:MapsServer</text></g><rect x="716" y="622" width="160" height="80" fill="none" stroke="#000000" pointer-events="none"/><g fill="#000000" font-family="Helvetica" text-anchor="middle" font-size="12px"><text x="795.75" y="633.5">&lt;&lt;component&gt;&gt;</text></g><path d="M 853 629 L 869 629 L 869 649 L 853 649 L 853 645 L 849 645 L 849 641 L 853 641 L 853 637 L 849 637 L 849 633 L 853 633 Z" fill="#ffffff" stroke="#000000" stroke-miterlimit="10" pointer-events="none"/><path d="M 853 633 L 857 633 L 857 637 L 853 637 M 853 641 L 857 641 L 857 645 L 853 645" fill="none" stroke="#000000" stroke-miterlimit="10" pointer-events="none"/><g fill="#000000" font-family="Helvetica" font-weight="bold" clip-path="url(#mx-clip-738-641-117-40-0)" text-anchor="middle" font-size="13px"><text x="796.5" y="654">Maps API</text><text x="796.5" y="670">\{Vendor: Google\}</text></g><path d="M 801 461 L 801 552" fill="none" stroke="#000000" stroke-miterlimit="10" pointer-events="none"/><g fill="#000000" font-family="Helvetica" font-size="12px"><text x="803" y="520">&lt;&lt;JSON&gt;&gt;</text></g><g fill="#000000" font-family="Helvetica" font-weight="bold" clip-path="url(#mx-clip-439-176-94-20-0)" text-anchor="middle" font-size="13px"><text x="486" y="189">Passenger UI</text></g><g fill="#000000" font-family="Helvetica" font-weight="bold" clip-path="url(#mx-clip-439-298-94-20-0)" text-anchor="middle" font-size="13px"><text x="486" y="311">Taxi Driver UI</text></g><g fill="#000000" font-family="Helvetica" font-weight="bold" clip-path="url(#mx-clip-439-415-94-20-0)" text-anchor="middle" font-size="13px"><text x="486" y="428">Sys Admin UI</text></g><path d="M 946 227 L 1096 227 L 1106 237 L 1106 417 L 956 417 L 946 407 L 946 227 Z" fill="none" stroke="#000000" stroke-miterlimit="10" transform="rotate(90,1026,322)" pointer-events="none"/><path d="M 956 417 L 956 237 L 946 227 M 956 237 L 1106 237" fill="none" stroke="#000000" stroke-miterlimit="10" transform="rotate(90,1026,322)" pointer-events="none"/><g fill="#000000" font-family="Helvetica" text-decoration="underline" text-anchor="middle" font-size="13px"><text x="1020.75" y="269.5">&lt;&lt;external device&gt;&gt;</text><text x="1020.75" y="285.5">:ExtDBServer</text></g><rect x="946" y="311" width="160" height="80" fill="none" stroke="#000000" pointer-events="none"/><g fill="#000000" font-family="Helvetica" text-anchor="middle" font-size="12px"><text x="1025.75" y="322.5">&lt;&lt;component&gt;&gt;</text></g><path d="M 1083 318 L 1099 318 L 1099 338 L 1083 338 L 1083 334 L 1079 334 L 1079 330 L 1083 330 L 1083 326 L 1079 326 L 1079 322 L 1083 322 Z" fill="#ffffff" stroke="#000000" stroke-miterlimit="10" pointer-events="none"/><path d="M 1083 322 L 1087 322 L 1087 326 L 1083 326 M 1083 330 L 1087 330 L 1087 334 L 1083 334" fill="none" stroke="#000000" stroke-miterlimit="10" pointer-events="none"/><g fill="#000000" font-family="Helvetica" font-weight="bold" clip-path="url(#mx-clip-961-331-130-40-0)" text-anchor="middle" font-size="13px"><text x="1026" y="344">Cars and Drivers</text><text x="1026" y="360">Database</text></g><path d="M 912 433 L 1016 433 Q 1026 433 1026 423 L 1026 402" fill="none" stroke="#000000" stroke-miterlimit="10" pointer-events="none"/><g fill="#000000" font-family="Helvetica" font-size="12px"><text x="933" y="449">&lt;&lt;JDBC&gt;&gt;</text></g></g></svg>