<?xml version="1.0" encoding="UTF-8"?>
<!DOCTYPE svg PUBLIC "-//W3C//DTD SVG 1.1//EN" "http://www.w3.org/Graphics/SVG/1.1/DTD/svg11.dtd">
<svg xmlns="http://www.w3.org/2000/svg" xmlns:xlink="http://www.w3.org/1999/xlink" width="1144px" height="714px" version="1.1" style="background-color: rgb(255, 255, 255);"><defs><clipPath id="mx-clip-61-514-100-20-0"><rect x="61" y="514" width="100" height="20"/></clipPath><clipPath id="mx-clip-71-356-80-20-0"><rect x="71" y="356" width="80" height="20"/></clipPath><clipPath id="mx-clip-76-169-70-20-0"><rect x="76" y="169" width="70" height="20"/></clipPath><clipPath id="mx-clip-461-119-40-20-0"><rect x="461" y="119" width="40" height="20"/></clipPath><clipPath id="mx-clip-763-239-107-20-0"><rect x="763" y="239" width="107" height="20"/></clipPath><clipPath id="mx-clip-770-121-94-20-0"><rect x="770" y="121" width="94" height="20"/></clipPath><clipPath id="mx-clip-972-131-130-50-0"><rect x="972" y="131" width="130" height="50"/></clipPath><clipPath id="mx-clip-762-358-110-20-0"><rect x="762" y="358" width="110" height="20"/></clipPath><clipPath id="mx-clip-754-641-117-40-0"><rect x="754" y="641" width="117" height="40"/></clipPath><clipPath id="mx-clip-439-174-94-20-0"><rect x="439" y="174" width="94" height="20"/></clipPath><clipPath id="mx-clip-439-296-94-20-0"><rect x="439" y="296" width="94" height="20"/></clipPath><clipPath id="mx-clip-439-413-94-20-0"><rect x="439" y="413" width="94" height="20"/></clipPath><clipPath id="mx-clip-972-309-114-40-0"><rect x="972" y="309" width="114" height="40"/></clipPath></defs><g transform="translate(0.5,0.5)"><path d="M 41 419 L 171 419 L 181 429 L 181 639 L 51 639 L 41 629 L 41 419 Z" fill="none" stroke="#000000" stroke-miterlimit="10" transform="rotate(90,111,529)" pointer-events="none"/><path d="M 51 639 L 51 429 L 41 419 M 51 429 L 181 429" fill="none" stroke="#000000" stroke-miterlimit="10" transform="rotate(90,111,529)" pointer-events="none"/><g fill="#000000" font-family="Helvetica" text-decoration="underline" text-anchor="middle" font-size="13px"><text x="105.75" y="486.5">:WebBrowser</text></g><rect x="21" y="502" width="180" height="90" fill="none" stroke="#000000" pointer-events="none"/><g fill="#000000" font-family="Helvetica" text-anchor="middle" font-size="12px"><text x="110.75" y="513.5">&lt;&lt;component&gt;&gt;</text></g><path d="M 178 509 L 194 509 L 194 529 L 178 529 L 178 525 L 174 525 L 174 521 L 178 521 L 178 517 L 174 517 L 174 513 L 178 513 Z" fill="#ffffff" stroke="#000000" stroke-miterlimit="10" pointer-events="none"/><path d="M 178 513 L 182 513 L 182 517 L 178 517 M 178 521 L 182 521 L 182 525 L 178 525" fill="none" stroke="#000000" stroke-miterlimit="10" pointer-events="none"/><g fill="#000000" font-family="Helvetica" font-weight="bold" clip-path="url(#mx-clip-61-514-100-20-0)" text-anchor="middle" font-size="13px"><text x="111" y="527">Sys Admin</text></g><path d="M 26 248 L 186 248 L 196 258 L 196 468 L 36 468 L 26 458 L 26 248 Z" fill="none" stroke="#000000" stroke-miterlimit="10" transform="rotate(90,111,358)" pointer-events="none"/><path d="M 36 468 L 36 258 L 26 248 M 36 258 L 196 258" fill="none" stroke="#000000" stroke-miterlimit="10" transform="rotate(90,111,358)" pointer-events="none"/><g fill="#000000" font-family="Helvetica" text-decoration="underline" text-anchor="middle" font-size="13px"><text x="105.75" y="300.5">&lt;&lt;device&gt;&gt;</text><text x="105.75" y="316.5">:Smartphone</text><text x="105.75" y="332.5">\{OS=Android\}</text></g><rect x="21" y="343" width="180" height="90" fill="none" stroke="#000000" pointer-events="none"/><g fill="#000000" font-family="Helvetica" text-anchor="middle" font-size="12px"><text x="110.75" y="354.5">&lt;&lt;component&gt;&gt;</text></g><path d="M 178 350 L 194 350 L 194 370 L 178 370 L 178 366 L 174 366 L 174 362 L 178 362 L 178 358 L 174 358 L 174 354 L 178 354 Z" fill="#ffffff" stroke="#000000" stroke-miterlimit="10" pointer-events="none"/><path d="M 178 354 L 182 354 L 182 358 L 178 358 M 178 362 L 182 362 L 182 366 L 178 366" fill="none" stroke="#000000" stroke-miterlimit="10" pointer-events="none"/><g fill="#000000" font-family="Helvetica" font-weight="bold" clip-path="url(#mx-clip-71-356-80-20-0)" text-anchor="middle" font-size="13px"><text x="111" y="369">Taxi Driver</text></g><path d="M 26 64 L 186 64 L 196 74 L 196 284 L 36 284 L 26 274 L 26 64 Z" fill="none" stroke="#000000" stroke-miterlimit="10" transform="rotate(90,111,174)" pointer-events="none"/><path d="M 36 284 L 36 74 L 26 64 M 36 74 L 196 74" fill="none" stroke="#000000" stroke-miterlimit="10" transform="rotate(90,111,174)" pointer-events="none"/><g fill="#000000" font-family="Helvetica" text-decoration="underline" text-anchor="middle" font-size="13px"><text x="105.75" y="116.5">&lt;&lt;device&gt;&gt;</text><text x="105.75" y="132.5">:Smartphone/</text><text x="105.75" y="148.5">Web Browser</text></g><rect x="21" y="159" width="180" height="90" fill="none" stroke="#000000" pointer-events="none"/><g fill="#000000" font-family="Helvetica" text-anchor="middle" font-size="12px"><text x="110.75" y="170.5">&lt;&lt;component&gt;&gt;</text></g><path d="M 178 166 L 194 166 L 194 186 L 178 186 L 178 182 L 174 182 L 174 178 L 178 178 L 178 174 L 174 174 L 174 170 L 178 170 Z" fill="#ffffff" stroke="#000000" stroke-miterlimit="10" pointer-events="none"/><path d="M 178 170 L 182 170 L 182 174 L 178 174 M 178 178 L 182 178 L 182 182 L 178 182" fill="none" stroke="#000000" stroke-miterlimit="10" pointer-events="none"/><g fill="#000000" font-family="Helvetica" font-weight="bold" clip-path="url(#mx-clip-76-169-70-20-0)" text-anchor="middle" font-size="13px"><text x="111" y="183.5">Passenger</text></g><path d="M 241 139 L 721 139 L 731 149 L 731 429 L 251 429 L 241 419 L 241 139 Z" fill="none" stroke="#000000" stroke-miterlimit="10" transform="rotate(90,486,284)" pointer-events="none"/><path d="M 251 429 L 251 149 L 241 139 M 251 149 L 731 149" fill="none" stroke="#000000" stroke-miterlimit="10" transform="rotate(90,486,284)" pointer-events="none"/><g fill="#000000" font-family="Helvetica" text-decoration="underline" text-anchor="middle" font-size="13px"><text x="480.75" y="66.5">&lt;&lt;device&gt;&gt;</text><text x="480.75" y="82.5">:PresentationServer</text><text x="480.75" y="98.5">\{OS=Linux\}</text></g><rect x="351" y="109" width="260" height="410" fill="none" stroke="#000000" pointer-events="none"/><g fill="#000000" font-family="Helvetica" text-anchor="middle" font-size="12px"><text x="480.75" y="120.5">&lt;&lt;component&gt;&gt;</text></g><path d="M 588 116 L 604 116 L 604 136 L 588 136 L 588 132 L 584 132 L 584 128 L 588 128 L 588 124 L 584 124 L 584 120 L 588 120 Z" fill="#ffffff" stroke="#000000" stroke-miterlimit="10" pointer-events="none"/><path d="M 588 120 L 592 120 L 592 124 L 588 124 M 588 128 L 592 128 L 592 132 L 588 132" fill="none" stroke="#000000" stroke-miterlimit="10" pointer-events="none"/><rect x="396" y="396" width="180" height="93" fill="none" stroke="#000000" pointer-events="none"/><g fill="#000000" font-family="Helvetica" text-anchor="middle" font-size="12px"><text x="485.75" y="407.5">&lt;&lt;component&gt;&gt;</text></g><path d="M 553 403 L 569 403 L 569 423 L 553 423 L 553 419 L 549 419 L 549 415 L 553 415 L 553 411 L 549 411 L 549 407 L 553 407 Z" fill="#ffffff" stroke="#000000" stroke-miterlimit="10" pointer-events="none"/><path d="M 553 407 L 557 407 L 557 411 L 553 411 M 553 415 L 557 415 L 557 419 L 553 419" fill="none" stroke="#000000" stroke-miterlimit="10" pointer-events="none"/><rect x="396" y="283" width="180" height="93" fill="none" stroke="#000000" pointer-events="none"/><g fill="#000000" font-family="Helvetica" text-anchor="middle" font-size="12px"><text x="485.75" y="294.5">&lt;&lt;component&gt;&gt;</text></g><path d="M 553 290 L 569 290 L 569 310 L 553 310 L 553 306 L 549 306 L 549 302 L 553 302 L 553 298 L 549 298 L 549 294 L 553 294 Z" fill="#ffffff" stroke="#000000" stroke-miterlimit="10" pointer-events="none"/><path d="M 553 294 L 557 294 L 557 298 L 553 298 M 553 302 L 557 302 L 557 306 L 553 306" fill="none" stroke="#000000" stroke-miterlimit="10" pointer-events="none"/><rect x="396" y="159" width="180" height="105" fill="none" stroke="#000000" pointer-events="none"/><g fill="#000000" font-family="Helvetica" text-anchor="middle" font-size="12px"><text x="485.75" y="170.5">&lt;&lt;component&gt;&gt;</text></g><path d="M 553 166 L 569 166 L 569 186 L 553 186 L 553 182 L 549 182 L 549 178 L 553 178 L 553 174 L 549 174 L 549 170 L 553 170 Z" fill="#ffffff" stroke="#000000" stroke-miterlimit="10" pointer-events="none"/><path d="M 553 170 L 557 170 L 557 174 L 553 174 M 553 178 L 557 178 L 557 182 L 553 182" fill="none" stroke="#000000" stroke-miterlimit="10" pointer-events="none"/><g fill="#000000" font-family="Helvetica" font-weight="bold" clip-path="url(#mx-clip-461-119-40-20-0)" text-anchor="middle" font-size="13px"><text x="481" y="133.5">GUI</text></g><path d="M 220.96 355.56 L 340.76 355.56" fill="none" stroke="#000000" stroke-miterlimit="10" pointer-events="none"/><g fill="#000000" font-family="Helvetica" font-size="12px"><text x="249" y="372">&lt;&lt;SOAP&gt;&gt;</text></g><path d="M 221.95 506.06 L 339.77 506.06" fill="none" stroke="#000000" stroke-miterlimit="10" pointer-events="none"/><g fill="#000000" font-family="Helvetica" font-size="12px"><text x="253" y="503">&lt;&lt;HTTPS&gt;&gt;</text></g><path d="M 221.08 131.5 L 340.76 131.8" fill="none" stroke="#000000" stroke-miterlimit="10" pointer-events="none"/><g fill="#000000" font-family="Helvetica" font-size="12px"><text x="223" y="148">&lt;&lt;SOAP/HTTPS&gt;&gt;</text></g><path d="M 607 141 L 1017 141 L 1027 151 L 1027 361 L 617 361 L 607 351 L 607 141 Z" fill="none" stroke="#000000" stroke-miterlimit="10" transform="rotate(90,817,251)" pointer-events="none"/><path d="M 617 361 L 617 151 L 607 141 M 617 151 L 1027 151" fill="none" stroke="#000000" stroke-miterlimit="10" transform="rotate(90,817,251)" pointer-events="none"/><g fill="#000000" font-family="Helvetica" text-decoration="underline" text-anchor="middle" font-size="13px"><text x="811.75" y="68.5">&lt;&lt;device&gt;&gt;</text><text x="811.75" y="84.5">:ApplicationServer</text><text x="811.75" y="100.5">\{OS = Linux\}</text></g><rect x="727" y="229" width="180" height="93" fill="none" stroke="#000000" pointer-events="none"/><g fill="#000000" font-family="Helvetica" text-anchor="middle" font-size="12px"><text x="816.75" y="240.5">&lt;&lt;component&gt;&gt;</text></g><path d="M 884 236 L 900 236 L 900 256 L 884 256 L 884 252 L 880 252 L 880 248 L 884 248 L 884 244 L 880 244 L 880 240 L 884 240 Z" fill="#ffffff" stroke="#000000" stroke-miterlimit="10" pointer-events="none"/><path d="M 884 240 L 888 240 L 888 244 L 884 244 M 884 248 L 888 248 L 888 252 L 884 252" fill="none" stroke="#000000" stroke-miterlimit="10" pointer-events="none"/><g fill="#000000" font-family="Helvetica" font-weight="bold" clip-path="url(#mx-clip-763-239-107-20-0)" text-anchor="middle" font-size="13px"><text x="816.5" y="253.5">Access Control</text></g><rect x="727" y="109" width="180" height="105" fill="none" stroke="#000000" pointer-events="none"/><g fill="#000000" font-family="Helvetica" text-anchor="middle" font-size="12px"><text x="816.75" y="120.5">&lt;&lt;component&gt;&gt;</text></g><path d="M 884 116 L 900 116 L 900 136 L 884 136 L 884 132 L 880 132 L 880 128 L 884 128 L 884 124 L 880 124 L 880 120 L 884 120 Z" fill="#ffffff" stroke="#000000" stroke-miterlimit="10" pointer-events="none"/><path d="M 884 120 L 888 120 L 888 124 L 884 124 M 884 128 L 888 128 L 888 132 L 884 132" fill="none" stroke="#000000" stroke-miterlimit="10" pointer-events="none"/><g fill="#000000" font-family="Helvetica" font-weight="bold" clip-path="url(#mx-clip-770-121-94-20-0)" text-anchor="middle" font-size="13px"><text x="817" y="135.5">Ride Manager</text></g><g fill="#000000" font-family="Helvetica" font-size="12px"><text x="638" y="129">&lt;&lt;JSON&gt;&gt;</text></g><path d="M 962 26 L 1112 26 L 1122 36 L 1122 216 L 972 216 L 962 206 L 962 26 Z" fill="none" stroke="#000000" stroke-miterlimit="10" transform="rotate(90,1042,121)" pointer-events="none"/><path d="M 972 216 L 972 36 L 962 26 M 972 36 L 1122 36" fill="none" stroke="#000000" stroke-miterlimit="10" transform="rotate(90,1042,121)" pointer-events="none"/><g fill="#000000" font-family="Helvetica" text-decoration="underline" text-anchor="middle" font-size="13px"><text x="1036.75" y="68.5">&lt;&lt;device&gt;&gt;</text><text x="1036.75" y="84.5">:DBServer</text><text x="1036.75" y="100.5">\{OS: Linux\}</text></g><rect x="957" y="111" width="160" height="80" fill="none" stroke="#000000" pointer-events="none"/><g fill="#000000" font-family="Helvetica" text-anchor="middle" font-size="12px"><text x="1036.75" y="122.5">&lt;&lt;component&gt;&gt;</text></g><path d="M 1094 118 L 1110 118 L 1110 138 L 1094 138 L 1094 134 L 1090 134 L 1090 130 L 1094 130 L 1094 126 L 1090 126 L 1090 122 L 1094 122 Z" fill="#ffffff" stroke="#000000" stroke-miterlimit="10" pointer-events="none"/><path d="M 1094 122 L 1098 122 L 1098 126 L 1094 126 M 1094 130 L 1098 130 L 1098 134 L 1094 134" fill="none" stroke="#000000" stroke-miterlimit="10" pointer-events="none"/><g fill="#000000" font-family="Helvetica" font-weight="bold" clip-path="url(#mx-clip-972-131-130-50-0)" text-anchor="middle" font-size="13px"><text x="1037" y="144.5">myTaxiService</text><text x="1037" y="160.5">Database</text><text x="1037" y="176.5">\{Vendor: MariaDB\}</text></g><path d="M 817 40.71 L 817 11 Q 817 1 827 1 L 1032 1 Q 1042 1 1041.94 11 L 1041.75 40.71" fill="none" stroke="#000000" stroke-miterlimit="10" pointer-events="none"/><g fill="#000000" font-family="Helvetica" font-size="12px"><text x="894" y="15">&lt;&lt;JDBC&gt;&gt;</text></g><rect x="727" y="342" width="180" height="93" fill="none" stroke="#000000" pointer-events="none"/><g fill="#000000" font-family="Helvetica" text-anchor="middle" font-size="12px"><text x="816.75" y="353.5">&lt;&lt;component&gt;&gt;</text></g><path d="M 884 349 L 900 349 L 900 369 L 884 369 L 884 365 L 880 365 L 880 361 L 884 361 L 884 357 L 880 357 L 880 353 L 884 353 Z" fill="#ffffff" stroke="#000000" stroke-miterlimit="10" pointer-events="none"/><path d="M 884 353 L 888 353 L 888 357 L 884 357 M 884 361 L 888 361 L 888 365 L 884 365" fill="none" stroke="#000000" stroke-miterlimit="10" pointer-events="none"/><g fill="#000000" font-family="Helvetica" font-weight="bold" clip-path="url(#mx-clip-762-358-110-20-0)" text-anchor="middle" font-size="13px"><text x="817" y="371">Queue Manager</text></g><path d="M 737 537 L 887 537 L 897 547 L 897 727 L 747 727 L 737 717 L 737 537 Z" fill="none" stroke="#000000" stroke-miterlimit="10" transform="rotate(90,817,632)" pointer-events="none"/><path d="M 747 727 L 747 547 L 737 537 M 747 547 L 897 547" fill="none" stroke="#000000" stroke-miterlimit="10" transform="rotate(90,817,632)" pointer-events="none"/><g fill="#000000" font-family="Helvetica" text-decoration="underline" text-anchor="middle" font-size="13px"><text x="811.75" y="579.5">&lt;&lt;external device&gt;&gt;</text><text x="811.75" y="595.5">:MapsServer</text></g><rect x="732" y="622" width="160" height="80" fill="none" stroke="#000000" pointer-events="none"/><g fill="#000000" font-family="Helvetica" text-anchor="middle" font-size="12px"><text x="811.75" y="633.5">&lt;&lt;component&gt;&gt;</text></g><path d="M 869 629 L 885 629 L 885 649 L 869 649 L 869 645 L 865 645 L 865 641 L 869 641 L 869 637 L 865 637 L 865 633 L 869 633 Z" fill="#ffffff" stroke="#000000" stroke-miterlimit="10" pointer-events="none"/><path d="M 869 633 L 873 633 L 873 637 L 869 637 M 869 641 L 873 641 L 873 645 L 869 645" fill="none" stroke="#000000" stroke-miterlimit="10" pointer-events="none"/><g fill="#000000" font-family="Helvetica" font-weight="bold" clip-path="url(#mx-clip-754-641-117-40-0)" text-anchor="middle" font-size="13px"><text x="812.5" y="654">Maps API</text><text x="812.5" y="670">\{Vendor: Google\}</text></g><path d="M 817 460.51 L 817 551.6" fill="none" stroke="#000000" stroke-miterlimit="10" pointer-events="none"/><g fill="#000000" font-family="Helvetica" font-size="12px"><text x="819" y="520">&lt;&lt;JSON&gt;&gt;</text></g><g fill="#000000" font-family="Helvetica" font-weight="bold" clip-path="url(#mx-clip-439-174-94-20-0)" text-anchor="middle" font-size="13px"><text x="486" y="187">Passenger UI</text></g><g fill="#000000" font-family="Helvetica" font-weight="bold" clip-path="url(#mx-clip-439-296-94-20-0)" text-anchor="middle" font-size="13px"><text x="486" y="309">Taxi Driver UI</text></g><g fill="#000000" font-family="Helvetica" font-weight="bold" clip-path="url(#mx-clip-439-413-94-20-0)" text-anchor="middle" font-size="13px"><text x="486" y="426">Sys Admin UI</text></g><path d="M 963.5 214.5 L 1110.5 214.5 L 1120.5 224.5 L 1120.5 414.5 L 973.5 414.5 L 963.5 404.5 L 963.5 214.5 Z" fill="none" stroke="#000000" stroke-miterlimit="10" transform="rotate(90,1042,314.5)" pointer-events="none"/><path d="M 973.5 414.5 L 973.5 224.5 L 963.5 214.5 M 973.5 224.5 L 1120.5 224.5" fill="none" stroke="#000000" stroke-miterlimit="10" transform="rotate(90,1042,314.5)" pointer-events="none"/><g fill="#000000" font-family="Helvetica" text-decoration="underline" text-anchor="middle" font-size="12px"><text x="1036.75" y="262.5">&lt;&lt;external device&gt;&gt;</text><text x="1036.75" y="276.5">:ExtDBServer</text></g><rect x="951" y="293" width="172" height="90" fill="none" stroke="#000000" pointer-events="none"/><g fill="#000000" font-family="Helvetica" text-anchor="middle" font-size="12px"><text x="1036.75" y="304.5">&lt;&lt;component&gt;&gt;</text></g><path d="M 1100 300 L 1116 300 L 1116 320 L 1100 320 L 1100 316 L 1096 316 L 1096 312 L 1100 312 L 1100 308 L 1096 308 L 1096 304 L 1100 304 Z" fill="#ffffff" stroke="#000000" stroke-miterlimit="10" pointer-events="none"/><path d="M 1100 304 L 1104 304 L 1104 308 L 1100 308 M 1100 312 L 1104 312 L 1104 316 L 1100 316" fill="none" stroke="#000000" stroke-miterlimit="10" pointer-events="none"/><g fill="#000000" font-family="Helvetica" font-weight="bold" clip-path="url(#mx-clip-972-309-114-40-0)" text-anchor="middle" font-size="13px"><text x="1029" y="322">Cars and Drivers</text><text x="1029" y="338">Database</text></g><path d="M 631 135 L 707 135" fill="none" stroke="#000000" stroke-miterlimit="10" pointer-events="none"/><path d="M 927 440 L 1032 440 Q 1042 440 1041.95 430 L 1041.75 393.19" fill="none" stroke="#000000" stroke-miterlimit="10" pointer-events="none"/><g fill="#000000" font-family="Helvetica" font-size="13px"><text x="944" y="457">&lt;&lt;JDBC&gt;&gt;</text></g></g></svg>