<?xml version="1.0" encoding="UTF-8"?>
<!DOCTYPE svg PUBLIC "-//W3C//DTD SVG 1.1//EN" "http://www.w3.org/Graphics/SVG/1.1/DTD/svg11.dtd">
<svg xmlns="http://www.w3.org/2000/svg" xmlns:xlink="http://www.w3.org/1999/xlink" width="823px" height="759px" version="1.1" style="background-color: rgb(255, 255, 255);"><defs/><g transform="translate(0.5,0.5)"><rect x="1" y="1" width="100" height="40" fill="none" stroke="#000000" pointer-events="none"/><path d="M 51 41 L 51 721" fill="none" stroke="#000000" stroke-miterlimit="10" stroke-dasharray="3 3" pointer-events="none"/><g fill="#000000" font-family="Helvetica" text-anchor="middle" font-size="12px"><text x="50.75" y="25.5">:Sys Admin</text></g><rect x="46" y="61" width="10" height="390" fill="#ffffff" stroke="#000000" pointer-events="none"/><rect x="46" y="506" width="10" height="35" fill="#ffffff" stroke="#000000" pointer-events="none"/><rect x="211" y="1" width="100" height="40" fill="none" stroke="#000000" pointer-events="none"/><path d="M 261 41 L 261 721" fill="none" stroke="#000000" stroke-miterlimit="10" stroke-dasharray="3 3" pointer-events="none"/><g fill="#000000" font-family="Helvetica" text-anchor="middle" font-size="12px"><text x="260.75" y="18.5">:Sys Admin</text><text x="260.75" y="32.5">UI Logic</text></g><rect x="256" y="61" width="10" height="390" fill="#ffffff" stroke="#000000" pointer-events="none"/><rect x="256" y="61" width="10" height="390" fill="none" stroke="#000000" pointer-events="none"/><rect x="256" y="481" width="10" height="40" fill="#ffffff" stroke="#000000" pointer-events="none"/><path d="M 56 61 L 247.88 61" fill="none" stroke="#000000" stroke-miterlimit="10" pointer-events="none"/><path d="M 254.88 61 L 247.88 64.5 L 247.88 57.5 Z" fill="#000000" stroke="#000000" stroke-miterlimit="10" pointer-events="none"/><g fill="#000000" font-family="Helvetica" text-anchor="middle" font-size="11px"><rect fill="#ffffff" stroke="none" x="107" y="46" width="99" height="14" stroke-width="0"/><text x="156" y="55">1: showMainMenu()</text></g><path d="M 256 101 L 121 101 Q 111 101 101 101 L 58.24 101" fill="none" stroke="#000000" stroke-miterlimit="10" stroke-dasharray="3 3" pointer-events="none"/><path d="M 66.12 96.5 L 57.12 101 L 66.12 105.5" fill="none" stroke="#000000" stroke-miterlimit="10" pointer-events="none"/><g fill="#000000" font-family="Helvetica" text-anchor="middle" font-size="11px"><rect fill="#ffffff" stroke="none" x="151" y="86" width="11" height="14" stroke-width="0"/><text x="156" y="95">2:</text></g><path d="M 56 141 L 247.88 141" fill="none" stroke="#000000" stroke-miterlimit="10" pointer-events="none"/><path d="M 254.88 141 L 247.88 144.5 L 247.88 137.5 Z" fill="#000000" stroke="#000000" stroke-miterlimit="10" pointer-events="none"/><g fill="#000000" font-family="Helvetica" text-anchor="middle" font-size="11px"><rect fill="#ffffff" stroke="none" x="98" y="126" width="118" height="14" stroke-width="0"/><text x="156" y="135">3: showAddNewDriver()</text></g><path d="M 256 171 L 201 171 Q 191 171 181 171 L 58.24 171" fill="none" stroke="#000000" stroke-miterlimit="10" stroke-dasharray="3 3" pointer-events="none"/><path d="M 66.12 166.5 L 57.12 171 L 66.12 175.5" fill="none" stroke="#000000" stroke-miterlimit="10" pointer-events="none"/><g fill="#000000" font-family="Helvetica" text-anchor="middle" font-size="11px"><rect fill="#ffffff" stroke="none" x="151" y="156" width="11" height="14" stroke-width="0"/><text x="156" y="165">4:</text></g><path d="M 56 211 L 141 211 Q 151 211 161 211 L 247.88 211" fill="none" stroke="#000000" stroke-miterlimit="10" pointer-events="none"/><path d="M 254.88 211 L 247.88 214.5 L 247.88 207.5 Z" fill="#000000" stroke="#000000" stroke-miterlimit="10" pointer-events="none"/><g fill="#000000" font-family="Helvetica" text-anchor="middle" font-size="11px"><rect fill="#ffffff" stroke="none" x="88" y="196" width="138" height="14" stroke-width="0"/><text x="156" y="205">5: submitDriverInformation()</text></g><rect x="401" y="1" width="100" height="40" fill="none" stroke="#000000" pointer-events="none"/><path d="M 451 41 L 451 721" fill="none" stroke="#000000" stroke-miterlimit="10" stroke-dasharray="3 3" pointer-events="none"/><g fill="#000000" font-family="Helvetica" text-anchor="middle" font-size="12px"><text x="450.75" y="18.5">:Access</text><text x="450.75" y="32.5">Control</text></g><rect x="446" y="301" width="10" height="150" fill="#ffffff" stroke="#000000" pointer-events="none"/><rect x="451" y="406" width="10" height="40" fill="#ffffff" stroke="#000000" pointer-events="none"/><path d="M 456 386 L 481 386 L 481 406 L 469.12 406" fill="none" stroke="#000000" stroke-miterlimit="10" pointer-events="none"/><path d="M 462.12 406 L 469.12 402.5 L 469.12 409.5 Z" fill="#000000" stroke="#000000" stroke-miterlimit="10" pointer-events="none"/><g fill="#000000" font-family="Helvetica" font-size="11px"><rect fill="#ffffff" stroke="none" x="485" y="388" width="133" height="14" stroke-width="0"/><text x="485" y="397.5">8: checkDataConsistency()</text></g><rect x="446" y="481" width="10" height="30" fill="#ffffff" stroke="#000000" pointer-events="none"/><rect x="446" y="581" width="10" height="70" fill="#ffffff" stroke="#000000" pointer-events="none"/><rect x="261" y="251" width="10" height="40" fill="#ffffff" stroke="#000000" pointer-events="none"/><path d="M 266 231 L 291 231 L 291 251 L 279.12 251" fill="none" stroke="#000000" stroke-miterlimit="10" pointer-events="none"/><path d="M 272.12 251 L 279.12 247.5 L 279.12 254.5 Z" fill="#000000" stroke="#000000" stroke-miterlimit="10" pointer-events="none"/><g fill="#000000" font-family="Helvetica" font-size="11px"><rect fill="#ffffff" stroke="none" x="295" y="233" width="83" height="14" stroke-width="0"/><text x="295" y="242.5">6: validateData()</text></g><path d="M 266 301 L 437.88 301" fill="none" stroke="#000000" stroke-miterlimit="10" pointer-events="none"/><path d="M 444.88 301 L 437.88 304.5 L 437.88 297.5 Z" fill="#000000" stroke="#000000" stroke-miterlimit="10" pointer-events="none"/><g fill="#000000" font-family="Helvetica" text-anchor="middle" font-size="11px"><rect fill="#ffffff" stroke="none" x="305" y="286" width="104" height="14" stroke-width="0"/><text x="356" y="295">7: taxiDriverSignUp()</text></g><rect x="586" y="1" width="100" height="40" fill="none" stroke="#000000" pointer-events="none"/><path d="M 636 41 L 636 401" fill="none" stroke="#000000" stroke-miterlimit="10" stroke-dasharray="3 3" pointer-events="none"/><g fill="#000000" font-family="Helvetica" text-anchor="middle" font-size="12px"><text x="635.75" y="18.5">:Cars and Drivers</text><text x="635.75" y="32.5">Database</text></g><rect x="631" y="326" width="10" height="45" fill="#ffffff" stroke="#000000" pointer-events="none"/><path d="M 456 326 L 622.88 326" fill="none" stroke="#000000" stroke-miterlimit="10" pointer-events="none"/><path d="M 629.88 326 L 622.88 329.5 L 622.88 322.5 Z" fill="#000000" stroke="#000000" stroke-miterlimit="10" pointer-events="none"/><g fill="#000000" font-family="Helvetica" text-anchor="middle" font-size="11px"><rect fill="#ffffff" stroke="none" x="495" y="311" width="99" height="14" stroke-width="0"/><text x="544" y="320">7.1: executeQuery()</text></g><path d="M 631 369 L 458.24 369" fill="none" stroke="#000000" stroke-miterlimit="10" stroke-dasharray="3 3" pointer-events="none"/><path d="M 466.12 364.5 L 457.12 369 L 466.12 373.5" fill="none" stroke="#000000" stroke-miterlimit="10" pointer-events="none"/><g fill="#000000" font-family="Helvetica" text-anchor="middle" font-size="11px"><rect fill="#ffffff" stroke="none" x="534" y="354" width="20" height="14" stroke-width="0"/><text x="543" y="363">7.2:</text></g><rect x="721" y="1" width="100" height="40" fill="none" stroke="#000000" pointer-events="none"/><path d="M 771 41 L 771 721" fill="none" stroke="#000000" stroke-miterlimit="10" stroke-dasharray="3 3" pointer-events="none"/><g fill="#000000" font-family="Helvetica" text-anchor="middle" font-size="12px"><text x="770.75" y="18.5">:myTaxiService</text><text x="770.75" y="32.5">Database</text></g><path d="M 456 581 L 757.88 581" fill="none" stroke="#000000" stroke-miterlimit="10" pointer-events="none"/><path d="M 764.88 581 L 757.88 584.5 L 757.88 577.5 Z" fill="#000000" stroke="#000000" stroke-miterlimit="10" pointer-events="none"/><g fill="#000000" font-family="Helvetica" text-anchor="middle" font-size="11px"><rect fill="#ffffff" stroke="none" x="562" y="566" width="99" height="14" stroke-width="0"/><text x="611" y="575">8.1: executeQuery()</text></g><rect x="766" y="581" width="10" height="50" fill="#ffffff" stroke="#000000" pointer-events="none"/><path d="M 766 629 L 458.24 629" fill="none" stroke="#000000" stroke-miterlimit="10" stroke-dasharray="3 3" pointer-events="none"/><path d="M 466.12 624.5 L 457.12 629 L 466.12 633.5" fill="none" stroke="#000000" stroke-miterlimit="10" pointer-events="none"/><g fill="#000000" font-family="Helvetica" text-anchor="middle" font-size="11px"><rect fill="#ffffff" stroke="none" x="603" y="614" width="17" height="14" stroke-width="0"/><text x="611" y="623">8.2</text></g><path d="M 651 396 L 621 426 M 621 396 L 651 426" fill="none" stroke="#000000" stroke-width="3" stroke-miterlimit="10" pointer-events="none"/><path d="M 1 461 L 61 461 L 61 476 L 51 491 L 1 491 Z" fill="#ffffff" stroke="#000000" stroke-miterlimit="10" pointer-events="none"/><path d="M 61 461 L 821 461 L 821 701 L 1 701 L 1 491" fill="none" stroke="#000000" stroke-miterlimit="10" pointer-events="none"/><g fill="#000000" font-family="Helvetica" text-anchor="middle" font-size="12px"><text x="31.5" y="480.5">alt</text></g><g fill="#000000" font-family="Helvetica" font-size="12px"><text x="73" y="475">[data is not consistent]</text></g><path d="M 1 555 L 821 555" fill="none" stroke="#000000" stroke-miterlimit="10" pointer-events="none"/><path d="M 446 481 L 268.24 481" fill="none" stroke="#000000" stroke-miterlimit="10" stroke-dasharray="3 3" pointer-events="none"/><path d="M 276.12 476.5 L 267.12 481 L 276.12 485.5" fill="none" stroke="#000000" stroke-miterlimit="10" pointer-events="none"/><g fill="#000000" font-family="Helvetica" text-anchor="middle" font-size="11px"><rect fill="#ffffff" stroke="none" x="311" y="466" width="91" height="14" stroke-width="0"/><text x="356" y="475">8.1: errorMessage</text></g><path d="M 256 506 L 58.24 506" fill="none" stroke="#000000" stroke-miterlimit="10" stroke-dasharray="3 3" pointer-events="none"/><path d="M 66.12 501.5 L 57.12 506 L 66.12 510.5" fill="none" stroke="#000000" stroke-miterlimit="10" pointer-events="none"/><g fill="#000000" font-family="Helvetica" text-anchor="middle" font-size="11px"><rect fill="#ffffff" stroke="none" x="147" y="491" width="20" height="14" stroke-width="0"/><text x="156" y="500">8.2:</text></g><path d="M 786 726 L 756 756 M 756 726 L 786 756" fill="none" stroke="#000000" stroke-width="3" stroke-miterlimit="10" transform="rotate(90,771,741)" pointer-events="none"/><rect x="256" y="641" width="10" height="30" fill="#ffffff" stroke="#000000" pointer-events="none"/><rect x="46" y="661" width="10" height="30" fill="#ffffff" stroke="#000000" pointer-events="none"/><path d="M 446 641 L 268.24 641" fill="none" stroke="#000000" stroke-miterlimit="10" stroke-dasharray="3 3" pointer-events="none"/><path d="M 276.12 636.5 L 267.12 641 L 276.12 645.5" fill="none" stroke="#000000" stroke-miterlimit="10" pointer-events="none"/><g fill="#000000" font-family="Helvetica" text-anchor="middle" font-size="11px"><rect fill="#ffffff" stroke="none" x="305" y="626" width="104" height="14" stroke-width="0"/><text x="356" y="635">8.3: confirmMessage</text></g><path d="M 256 661 L 58.24 661" fill="none" stroke="#000000" stroke-miterlimit="10" stroke-dasharray="3 3" pointer-events="none"/><path d="M 66.12 656.5 L 57.12 661 L 66.12 665.5" fill="none" stroke="#000000" stroke-miterlimit="10" pointer-events="none"/><g fill="#000000" font-family="Helvetica" text-anchor="middle" font-size="11px"><rect fill="#ffffff" stroke="none" x="147" y="646" width="20" height="14" stroke-width="0"/><text x="156" y="655">8.4:</text></g><path d="M 466 726 L 436 756 M 436 726 L 466 756" fill="none" stroke="#000000" stroke-width="3" stroke-miterlimit="10" pointer-events="none"/><path d="M 276 726 L 246 756 M 246 726 L 276 756" fill="none" stroke="#000000" stroke-width="3" stroke-miterlimit="10" pointer-events="none"/><path d="M 66 726 L 36 756 M 36 726 L 66 756" fill="none" stroke="#000000" stroke-width="3" stroke-miterlimit="10" pointer-events="none"/></g></svg>