<?xml version="1.0" encoding="UTF-8"?>
<!DOCTYPE svg PUBLIC "-//W3C//DTD SVG 1.1//EN" "http://www.w3.org/Graphics/SVG/1.1/DTD/svg11.dtd">
<svg xmlns="http://www.w3.org/2000/svg" xmlns:xlink="http://www.w3.org/1999/xlink" width="663px" height="485px" version="1.1" style="background-color: rgb(255, 255, 255);"><defs/><g transform="translate(0.5,0.5)"><rect x="21" y="1" width="100" height="40" fill="none" stroke="#000000" pointer-events="none"/><path d="M 71 41 L 71 451" fill="none" stroke="#000000" stroke-miterlimit="10" stroke-dasharray="3 3" pointer-events="none"/><g fill="#000000" font-family="Helvetica" text-anchor="middle" font-size="12px"><text x="70.75" y="25.5">:Taxi Driver</text></g><rect x="66" y="61" width="10" height="60" fill="#ffffff" stroke="#000000" pointer-events="none"/><rect x="66" y="241" width="10" height="30" fill="#ffffff" stroke="#000000" pointer-events="none"/><rect x="191" y="1" width="100" height="40" fill="none" stroke="#000000" pointer-events="none"/><path d="M 241 41 L 241 451" fill="none" stroke="#000000" stroke-miterlimit="10" stroke-dasharray="3 3" pointer-events="none"/><g fill="#000000" font-family="Helvetica" text-anchor="middle" font-size="12px"><text x="240.75" y="18.5">:Taxi Driver</text><text x="240.75" y="32.5">UI Logic</text></g><rect x="236" y="61" width="10" height="60" fill="#ffffff" stroke="#000000" pointer-events="none"/><rect x="236" y="221" width="10" height="30" fill="#ffffff" stroke="#000000" pointer-events="none"/><path d="M 76 61 L 227.88 61" fill="none" stroke="#000000" stroke-miterlimit="10" pointer-events="none"/><path d="M 234.88 61 L 227.88 64.5 L 227.88 57.5 Z" fill="#000000" stroke="#000000" stroke-miterlimit="10" pointer-events="none"/><g fill="#000000" font-family="Helvetica" text-anchor="middle" font-size="11px"><rect fill="#ffffff" stroke="none" x="83" y="46" width="148" height="14" stroke-width="0"/><text x="156" y="55">1: submitNewWorkingStatus()</text></g><rect x="381" y="1" width="100" height="40" fill="none" stroke="#000000" pointer-events="none"/><path d="M 431 41 L 431 451" fill="none" stroke="#000000" stroke-miterlimit="10" stroke-dasharray="3 3" pointer-events="none"/><g fill="#000000" font-family="Helvetica" text-anchor="middle" font-size="12px"><text x="430.75" y="25.5">:Queue Manager</text></g><rect x="426" y="91" width="10" height="30" fill="#ffffff" stroke="#000000" pointer-events="none"/><rect x="426" y="151" width="10" height="80" fill="#ffffff" stroke="#000000" pointer-events="none"/><rect x="431" y="171" width="10" height="40" fill="#ffffff" stroke="#000000" pointer-events="none"/><path d="M 436 151 L 461 151 L 461 171 L 449.12 171" fill="none" stroke="#000000" stroke-miterlimit="10" pointer-events="none"/><path d="M 442.12 171 L 449.12 167.5 L 449.12 174.5 Z" fill="#000000" stroke="#000000" stroke-miterlimit="10" pointer-events="none"/><g fill="#000000" font-family="Helvetica" font-size="11px"><rect fill="#ffffff" stroke="none" x="465" y="153" width="58" height="14" stroke-width="0"/><text x="465" y="162.5">3:addTaxi()</text></g><path d="M 246 91 L 417.88 91" fill="none" stroke="#000000" stroke-miterlimit="10" pointer-events="none"/><path d="M 424.88 91 L 417.88 94.5 L 417.88 87.5 Z" fill="#000000" stroke="#000000" stroke-miterlimit="10" pointer-events="none"/><g fill="#000000" font-family="Helvetica" text-anchor="middle" font-size="11px"><rect fill="#ffffff" stroke="none" x="282" y="76" width="110" height="14" stroke-width="0"/><text x="336" y="85">2: changeTaxiStatus()</text></g><path d="M 1 131 L 61 131 L 61 146 L 51 161 L 1 161 Z" fill="#ffffff" stroke="#000000" stroke-miterlimit="10" pointer-events="none"/><path d="M 61 131 L 661 131 L 661 431 L 1 431 L 1 161" fill="none" stroke="#000000" stroke-miterlimit="10" pointer-events="none"/><g fill="#000000" font-family="Helvetica" text-anchor="middle" font-size="12px"><text x="31.5" y="150.5">alt</text></g><g fill="#000000" font-family="Helvetica" font-size="12px"><text x="78" y="150">[Driver is now available]</text></g><path d="M 426 221 L 248.24 221" fill="none" stroke="#000000" stroke-miterlimit="10" stroke-dasharray="3 3" pointer-events="none"/><path d="M 256.12 216.5 L 247.12 221 L 256.12 225.5" fill="none" stroke="#000000" stroke-miterlimit="10" pointer-events="none"/><g fill="#000000" font-family="Helvetica" text-anchor="middle" font-size="11px"><rect fill="#ffffff" stroke="none" x="277" y="206" width="119" height="14" stroke-width="0"/><text x="336" y="215">4: confirmationMessage</text></g><path d="M 236 241 L 78.24 241" fill="none" stroke="#000000" stroke-miterlimit="10" stroke-dasharray="3 3" pointer-events="none"/><path d="M 86.12 236.5 L 77.12 241 L 86.12 245.5" fill="none" stroke="#000000" stroke-miterlimit="10" pointer-events="none"/><g fill="#000000" font-family="Helvetica" text-anchor="middle" font-size="11px"><rect fill="#ffffff" stroke="none" x="151" y="226" width="11" height="14" stroke-width="0"/><text x="156" y="235">5:</text></g><path d="M 1 283 L 661 283" fill="none" stroke="#000000" stroke-miterlimit="10" pointer-events="none"/><rect x="66" y="381" width="10" height="30" fill="#ffffff" stroke="#000000" pointer-events="none"/><rect x="236" y="361" width="10" height="30" fill="#ffffff" stroke="#000000" pointer-events="none"/><rect x="426" y="291" width="10" height="80" fill="#ffffff" stroke="#000000" pointer-events="none"/><rect x="431" y="311" width="10" height="40" fill="#ffffff" stroke="#000000" pointer-events="none"/><path d="M 436 291 L 461 291 L 461 311 L 449.12 311" fill="none" stroke="#000000" stroke-miterlimit="10" pointer-events="none"/><path d="M 442.12 311 L 449.12 307.5 L 449.12 314.5 Z" fill="#000000" stroke="#000000" stroke-miterlimit="10" pointer-events="none"/><g fill="#000000" font-family="Helvetica" font-size="11px"><rect fill="#ffffff" stroke="none" x="465" y="295" width="76" height="14" stroke-width="0"/><text x="465.5" y="304.5">3:removeTaxi()</text></g><path d="M 426 361 L 248.24 361" fill="none" stroke="#000000" stroke-miterlimit="10" stroke-dasharray="3 3" pointer-events="none"/><path d="M 256.12 356.5 L 247.12 361 L 256.12 365.5" fill="none" stroke="#000000" stroke-miterlimit="10" pointer-events="none"/><g fill="#000000" font-family="Helvetica" text-anchor="middle" font-size="11px"><rect fill="#ffffff" stroke="none" x="277" y="346" width="119" height="14" stroke-width="0"/><text x="336" y="355">4: confirmationMessage</text></g><path d="M 236 381 L 78.24 381" fill="none" stroke="#000000" stroke-miterlimit="10" stroke-dasharray="3 3" pointer-events="none"/><path d="M 86.12 376.5 L 77.12 381 L 86.12 385.5" fill="none" stroke="#000000" stroke-miterlimit="10" pointer-events="none"/><g fill="#000000" font-family="Helvetica" text-anchor="middle" font-size="11px"><rect fill="#ffffff" stroke="none" x="151" y="366" width="11" height="14" stroke-width="0"/><text x="156" y="375">5:</text></g><path d="M 86 452 L 56 482 M 56 452 L 86 482" fill="none" stroke="#000000" stroke-width="3" stroke-miterlimit="10" pointer-events="none"/><path d="M 256 451 L 226 481 M 226 451 L 256 481" fill="none" stroke="#000000" stroke-width="3" stroke-miterlimit="10" pointer-events="none"/><path d="M 446 451 L 416 481 M 416 451 L 446 481" fill="none" stroke="#000000" stroke-width="3" stroke-miterlimit="10" pointer-events="none"/></g></svg>