<?xml version="1.0" encoding="UTF-8"?>
<!DOCTYPE svg PUBLIC "-//W3C//DTD SVG 1.1//EN" "http://www.w3.org/Graphics/SVG/1.1/DTD/svg11.dtd">
<svg xmlns="http://www.w3.org/2000/svg" xmlns:xlink="http://www.w3.org/1999/xlink" width="1043px" height="313px" version="1.1" style="background-color: rgb(255, 255, 255);"><defs><clipPath id="mx-clip-71-121-40-20-0"><rect x="71" y="121" width="40" height="20"/></clipPath><clipPath id="mx-clip-386-121-40-20-0"><rect x="386" y="121" width="40" height="20"/></clipPath><clipPath id="mx-clip-651-15-60-35-0"><rect x="651" y="15" width="60" height="35"/></clipPath><clipPath id="mx-clip-636-235-90-20-0"><rect x="636" y="235" width="90" height="20"/></clipPath><clipPath id="mx-clip-901-15-100-32-0"><rect x="901" y="15" width="100" height="32"/></clipPath></defs><g transform="translate(0.5,0.5)"><rect x="1" y="111" width="180" height="90" fill="none" stroke="#000000" pointer-events="none"/><g fill="#000000" font-family="Helvetica" text-anchor="middle" font-size="12px"><text x="90.75" y="122.5">&lt;&lt;component&gt;&gt;</text></g><path d="M 158 118 L 174 118 L 174 138 L 158 138 L 158 134 L 154 134 L 154 130 L 158 130 L 158 126 L 154 126 L 154 122 L 158 122 Z" fill="#ffffff" stroke="#000000" stroke-miterlimit="10" pointer-events="none"/><path d="M 158 122 L 162 122 L 162 126 L 158 126 M 158 130 L 162 130 L 162 134 L 158 134" fill="none" stroke="#000000" stroke-miterlimit="10" pointer-events="none"/><g fill="#000000" font-family="Helvetica" font-weight="bold" clip-path="url(#mx-clip-71-121-40-20-0)" text-anchor="middle" font-size="13px"><text x="91" y="135.5">Actor</text></g><rect x="316" y="111" width="180" height="90" fill="none" stroke="#000000" pointer-events="none"/><g fill="#000000" font-family="Helvetica" text-anchor="middle" font-size="12px"><text x="405.75" y="122.5">&lt;&lt;component&gt;&gt;</text></g><path d="M 473 118 L 489 118 L 489 138 L 473 138 L 473 134 L 469 134 L 469 130 L 473 130 L 473 126 L 469 126 L 469 122 L 473 122 Z" fill="#ffffff" stroke="#000000" stroke-miterlimit="10" pointer-events="none"/><path d="M 473 122 L 477 122 L 477 126 L 473 126 M 473 130 L 477 130 L 477 134 L 473 134" fill="none" stroke="#000000" stroke-miterlimit="10" pointer-events="none"/><g fill="#000000" font-family="Helvetica" font-weight="bold" clip-path="url(#mx-clip-386-121-40-20-0)" text-anchor="middle" font-size="13px"><text x="406" y="135.5">GUI</text></g><rect x="591" y="1" width="180" height="90" fill="none" stroke="#000000" pointer-events="none"/><g fill="#000000" font-family="Helvetica" text-anchor="middle" font-size="12px"><text x="680.75" y="12.5">&lt;&lt;component&gt;&gt;</text></g><path d="M 748 8 L 764 8 L 764 28 L 748 28 L 748 24 L 744 24 L 744 20 L 748 20 L 748 16 L 744 16 L 744 12 L 748 12 Z" fill="#ffffff" stroke="#000000" stroke-miterlimit="10" pointer-events="none"/><path d="M 748 12 L 752 12 L 752 16 L 748 16 M 748 20 L 752 20 L 752 24 L 748 24" fill="none" stroke="#000000" stroke-miterlimit="10" pointer-events="none"/><ellipse cx="576" cy="56" rx="5" ry="5" fill="none" stroke="#000000" transform="rotate(270,576,66)" pointer-events="none"/><path d="M 576 61 L 576 81" fill="none" stroke="#000000" stroke-miterlimit="10" transform="rotate(270,576,66)" pointer-events="none"/><g fill="#000000" font-family="Helvetica" font-weight="bold" clip-path="url(#mx-clip-651-15-60-35-0)" text-anchor="middle" font-size="13px"><text x="681" y="28">Access</text><text x="681" y="44">Control</text></g><rect x="591" y="221" width="180" height="90" fill="none" stroke="#000000" pointer-events="none"/><g fill="#000000" font-family="Helvetica" text-anchor="middle" font-size="12px"><text x="680.75" y="232.5">&lt;&lt;component&gt;&gt;</text></g><path d="M 748 228 L 764 228 L 764 248 L 748 248 L 748 244 L 744 244 L 744 240 L 748 240 L 748 236 L 744 236 L 744 232 L 748 232 Z" fill="#ffffff" stroke="#000000" stroke-miterlimit="10" pointer-events="none"/><path d="M 748 232 L 752 232 L 752 236 L 748 236 M 748 240 L 752 240 L 752 244 L 748 244" fill="none" stroke="#000000" stroke-miterlimit="10" pointer-events="none"/><g fill="#000000" font-family="Helvetica" font-weight="bold" clip-path="url(#mx-clip-636-235-90-20-0)" text-anchor="middle" font-size="13px"><text x="681" y="248">Ride Manager</text></g><rect x="861" y="1" width="180" height="90" fill="none" stroke="#000000" pointer-events="none"/><g fill="#000000" font-family="Helvetica" text-anchor="middle" font-size="12px"><text x="950.75" y="12.5">&lt;&lt;component&gt;&gt;</text></g><path d="M 1018 8 L 1034 8 L 1034 28 L 1018 28 L 1018 24 L 1014 24 L 1014 20 L 1018 20 L 1018 16 L 1014 16 L 1014 12 L 1018 12 Z" fill="#ffffff" stroke="#000000" stroke-miterlimit="10" pointer-events="none"/><path d="M 1018 12 L 1022 12 L 1022 16 L 1018 16 M 1018 20 L 1022 20 L 1022 24 L 1018 24" fill="none" stroke="#000000" stroke-miterlimit="10" pointer-events="none"/><g fill="#000000" font-family="Helvetica" font-weight="bold" clip-path="url(#mx-clip-901-15-100-32-0)" text-anchor="middle" font-size="13px"><text x="951" y="28">myTaxiService</text><text x="951" y="44">Database</text></g><ellipse cx="279" cy="94" rx="5" ry="5" fill="none" stroke="#000000" transform="rotate(270,278.5,126)" pointer-events="none"/><path d="M 278.5 98.5 L 278.5 163.5" fill="none" stroke="#000000" stroke-miterlimit="10" transform="rotate(270,278.5,126)" pointer-events="none"/><ellipse cx="279" cy="134" rx="5" ry="5" fill="none" stroke="#000000" transform="rotate(270,278.5,166)" pointer-events="none"/><path d="M 278.5 138.5 L 278.5 203.5" fill="none" stroke="#000000" stroke-miterlimit="10" transform="rotate(270,278.5,166)" pointer-events="none"/><path d="M 216 104 L 216 161" fill="none" stroke="#000000" stroke-miterlimit="10" transform="rotate(90,216,126)" pointer-events="none"/><path d="M 208 96 Q 208 104 216 104 Q 224 104 224 96" fill="none" stroke="#000000" stroke-miterlimit="10" transform="rotate(90,216,126)" pointer-events="none"/><path d="M 216 144 L 216 201" fill="none" stroke="#000000" stroke-miterlimit="10" transform="rotate(90,216,166)" pointer-events="none"/><path d="M 208 136 Q 208 144 216 144 Q 224 144 224 136" fill="none" stroke="#000000" stroke-miterlimit="10" transform="rotate(90,216,166)" pointer-events="none"/><g fill="#000000" font-family="Helvetica" font-size="12px"><text x="228" y="115">Mobile</text></g><g fill="#000000" font-family="Helvetica" font-size="12px"><text x="233" y="195">Web</text></g><ellipse cx="836" cy="21" rx="5" ry="5" fill="none" stroke="#000000" transform="rotate(270,836,41)" pointer-events="none"/><path d="M 836 26 L 836 66" fill="none" stroke="#000000" stroke-miterlimit="10" transform="rotate(270,836,41)" pointer-events="none"/><path d="M 796 29 L 796 66" fill="none" stroke="#000000" stroke-miterlimit="10" transform="rotate(90,796,41)" pointer-events="none"/><path d="M 788 21 Q 788 29 796 29 Q 804 29 804 21" fill="none" stroke="#000000" stroke-miterlimit="10" transform="rotate(90,796,41)" pointer-events="none"/><g fill="#000000" font-family="Helvetica" font-size="12px"><text x="798" y="30">JDBC</text></g><ellipse cx="576" cy="11" rx="5" ry="5" fill="none" stroke="#000000" transform="rotate(270,576,21)" pointer-events="none"/><path d="M 576 16 L 576 36" fill="none" stroke="#000000" stroke-miterlimit="10" transform="rotate(270,576,21)" pointer-events="none"/><path d="M 511 124 L 511 141" fill="none" stroke="#000000" stroke-miterlimit="10" transform="rotate(90,511,126)" pointer-events="none"/><path d="M 503 116 Q 503 124 511 124 Q 519 124 519 116" fill="none" stroke="#000000" stroke-miterlimit="10" transform="rotate(90,511,126)" pointer-events="none"/><path d="M 511 174 L 511 191" fill="none" stroke="#000000" stroke-miterlimit="10" transform="rotate(90,511,176)" pointer-events="none"/><path d="M 503 166 Q 503 174 511 174 Q 519 174 519 166" fill="none" stroke="#000000" stroke-miterlimit="10" transform="rotate(90,511,176)" pointer-events="none"/><path d="M 513 128 L 522 127.5 Q 531 127 531 117 L 531 31 Q 531 21 541 21 L 558.76 21" fill="none" stroke="#000000" stroke-miterlimit="10" stroke-dasharray="3 3" pointer-events="none"/><path d="M 552.88 24.5 L 559.88 21 L 552.88 17.5" fill="none" stroke="#000000" stroke-miterlimit="10" pointer-events="none"/><g fill="#000000" font-family="Helvetica" font-size="12px"><text x="493" y="75">Login</text></g><path d="M 517 177 L 557 177 Q 567 177 567 167 L 567 75.24" fill="none" stroke="#000000" stroke-miterlimit="10" stroke-dasharray="3 3" pointer-events="none"/><path d="M 570.5 81.12 L 567 74.12 L 563.5 81.12" fill="none" stroke="#000000" stroke-miterlimit="10" pointer-events="none"/><g fill="#000000" font-family="Helvetica" font-size="12px"><text x="573" y="148">Sign Up</text></g><ellipse cx="576" cy="236" rx="5" ry="5" fill="none" stroke="#000000" transform="rotate(270,576,246)" pointer-events="none"/><path d="M 576 241 L 576 261" fill="none" stroke="#000000" stroke-miterlimit="10" transform="rotate(270,576,246)" pointer-events="none"/><ellipse cx="576" cy="276" rx="5" ry="5" fill="none" stroke="#000000" transform="rotate(270,576,286)" pointer-events="none"/><path d="M 576 281 L 576 301" fill="none" stroke="#000000" stroke-miterlimit="10" transform="rotate(270,576,286)" pointer-events="none"/><path d="M 456 214 L 456 231" fill="none" stroke="#000000" stroke-miterlimit="10" transform="rotate(180,456,216)" pointer-events="none"/><path d="M 448 206 Q 448 214 456 214 Q 464 214 464 206" fill="none" stroke="#000000" stroke-miterlimit="10" transform="rotate(180,456,216)" pointer-events="none"/><path d="M 396 214 L 396 231" fill="none" stroke="#000000" stroke-miterlimit="10" transform="rotate(180,396,216)" pointer-events="none"/><path d="M 388 206 Q 388 214 396 214 Q 404 214 404 206" fill="none" stroke="#000000" stroke-miterlimit="10" transform="rotate(180,396,216)" pointer-events="none"/><path d="M 458 222 L 458 236 Q 458 246 468 246 L 558.76 246" fill="none" stroke="#000000" stroke-miterlimit="10" stroke-dasharray="3 3" pointer-events="none"/><path d="M 552.88 249.5 L 559.88 246 L 552.88 242.5" fill="none" stroke="#000000" stroke-miterlimit="10" pointer-events="none"/><g fill="#000000" font-family="Helvetica" font-size="12px"><text x="493" y="239">Request</text></g><path d="M 396 222 L 396 276 Q 396 286 406 286 L 558.76 286" fill="none" stroke="#000000" stroke-miterlimit="10" stroke-dasharray="3 3" pointer-events="none"/><path d="M 552.88 289.5 L 559.88 286 L 552.88 282.5" fill="none" stroke="#000000" stroke-miterlimit="10" pointer-events="none"/><g fill="#000000" font-family="Helvetica" font-size="12px"><text x="418" y="280">Reservation</text></g></g></svg>