<?xml version="1.0" encoding="UTF-8"?>
<!DOCTYPE svg PUBLIC "-//W3C//DTD SVG 1.1//EN" "http://www.w3.org/Graphics/SVG/1.1/DTD/svg11.dtd">
<svg xmlns="http://www.w3.org/2000/svg" xmlns:xlink="http://www.w3.org/1999/xlink" width="1043px" height="313px" version="1.1" style="background-color: rgb(255, 255, 255);"><defs><clipPath id="mx-clip-71-121-40-20-0"><rect x="71" y="121" width="40" height="20"/></clipPath><clipPath id="mx-clip-366-121-70-20-0"><rect x="366" y="121" width="70" height="20"/></clipPath><clipPath id="mx-clip-621-18-120-16-0"><rect x="621" y="18" width="120" height="16"/></clipPath><clipPath id="mx-clip-636-235-90-20-0"><rect x="636" y="235" width="90" height="20"/></clipPath><clipPath id="mx-clip-901-15-100-32-0"><rect x="901" y="15" width="100" height="32"/></clipPath></defs><g transform="translate(0.5,0.5)"><rect x="1" y="111" width="180" height="90" fill="none" stroke="#000000" pointer-events="none"/><g fill="#000000" font-family="Helvetica" text-anchor="middle" font-size="12px"><text x="90.75" y="122.5">&lt;&lt;component&gt;&gt;</text></g><path d="M 158 118 L 174 118 L 174 138 L 158 138 L 158 134 L 154 134 L 154 130 L 158 130 L 158 126 L 154 126 L 154 122 L 158 122 Z" fill="#ffffff" stroke="#000000" stroke-miterlimit="10" pointer-events="none"/><path d="M 158 122 L 162 122 L 162 126 L 158 126 M 158 130 L 162 130 L 162 134 L 158 134" fill="none" stroke="#000000" stroke-miterlimit="10" pointer-events="none"/><g fill="#000000" font-family="Helvetica" font-weight="bold" clip-path="url(#mx-clip-71-121-40-20-0)" text-anchor="middle" font-size="13px"><text x="91" y="135.5">Actor</text></g><rect x="316" y="111" width="180" height="90" fill="none" stroke="#000000" pointer-events="none"/><g fill="#000000" font-family="Helvetica" text-anchor="middle" font-size="12px"><text x="405.75" y="122.5">&lt;&lt;component&gt;&gt;</text></g><path d="M 473 118 L 489 118 L 489 138 L 473 138 L 473 134 L 469 134 L 469 130 L 473 130 L 473 126 L 469 126 L 469 122 L 473 122 Z" fill="#ffffff" stroke="#000000" stroke-miterlimit="10" pointer-events="none"/><path d="M 473 122 L 477 122 L 477 126 L 473 126 M 473 130 L 477 130 L 477 134 L 473 134" fill="none" stroke="#000000" stroke-miterlimit="10" pointer-events="none"/><g fill="#000000" font-family="Helvetica" font-weight="bold" clip-path="url(#mx-clip-366-121-70-20-0)" text-anchor="middle" font-size="13px"><text x="401" y="135.5">GUI Logic</text></g><rect x="591" y="1" width="180" height="90" fill="none" stroke="#000000" pointer-events="none"/><g fill="#000000" font-family="Helvetica" text-anchor="middle" font-size="12px"><text x="680.75" y="12.5">&lt;&lt;component&gt;&gt;</text></g><path d="M 748 8 L 764 8 L 764 28 L 748 28 L 748 24 L 744 24 L 744 20 L 748 20 L 748 16 L 744 16 L 744 12 L 748 12 Z" fill="#ffffff" stroke="#000000" stroke-miterlimit="10" pointer-events="none"/><path d="M 748 12 L 752 12 L 752 16 L 748 16 M 748 20 L 752 20 L 752 24 L 748 24" fill="none" stroke="#000000" stroke-miterlimit="10" pointer-events="none"/><g fill="#000000" font-family="Helvetica" font-weight="bold" clip-path="url(#mx-clip-621-18-120-16-0)" text-anchor="middle" font-size="13px"><text x="681" y="31">Access Control</text></g><rect x="591" y="221" width="180" height="90" fill="none" stroke="#000000" pointer-events="none"/><g fill="#000000" font-family="Helvetica" text-anchor="middle" font-size="12px"><text x="680.75" y="232.5">&lt;&lt;component&gt;&gt;</text></g><path d="M 748 228 L 764 228 L 764 248 L 748 248 L 748 244 L 744 244 L 744 240 L 748 240 L 748 236 L 744 236 L 744 232 L 748 232 Z" fill="#ffffff" stroke="#000000" stroke-miterlimit="10" pointer-events="none"/><path d="M 748 232 L 752 232 L 752 236 L 748 236 M 748 240 L 752 240 L 752 244 L 748 244" fill="none" stroke="#000000" stroke-miterlimit="10" pointer-events="none"/><g fill="#000000" font-family="Helvetica" font-weight="bold" clip-path="url(#mx-clip-636-235-90-20-0)" text-anchor="middle" font-size="13px"><text x="681" y="248">Ride Manager</text></g><rect x="861" y="1" width="180" height="90" fill="none" stroke="#000000" pointer-events="none"/><g fill="#000000" font-family="Helvetica" text-anchor="middle" font-size="12px"><text x="950.75" y="12.5">&lt;&lt;component&gt;&gt;</text></g><path d="M 1018 8 L 1034 8 L 1034 28 L 1018 28 L 1018 24 L 1014 24 L 1014 20 L 1018 20 L 1018 16 L 1014 16 L 1014 12 L 1018 12 Z" fill="#ffffff" stroke="#000000" stroke-miterlimit="10" pointer-events="none"/><path d="M 1018 12 L 1022 12 L 1022 16 L 1018 16 M 1018 20 L 1022 20 L 1022 24 L 1018 24" fill="none" stroke="#000000" stroke-miterlimit="10" pointer-events="none"/><g fill="#000000" font-family="Helvetica" font-weight="bold" clip-path="url(#mx-clip-901-15-100-32-0)" text-anchor="middle" font-size="13px"><text x="951" y="28">myTaxiService</text><text x="951" y="44">Database</text></g><ellipse cx="279" cy="114" rx="5" ry="5" fill="none" stroke="#000000" transform="rotate(270,278.5,146)" pointer-events="none"/><path d="M 278.5 118.5 L 278.5 183.5" fill="none" stroke="#000000" stroke-miterlimit="10" transform="rotate(270,278.5,146)" pointer-events="none"/><path d="M 216 124 L 216 181" fill="none" stroke="#000000" stroke-miterlimit="10" transform="rotate(90,216,146)" pointer-events="none"/><path d="M 208 116 Q 208 124 216 124 Q 224 124 224 116" fill="none" stroke="#000000" stroke-miterlimit="10" transform="rotate(90,216,146)" pointer-events="none"/><g fill="#000000" font-family="Helvetica" font-size="12px"><text x="233" y="175">GUI Logic</text><text x="233" y="189">Interface</text></g><ellipse cx="836" cy="21" rx="5" ry="5" fill="none" stroke="#000000" transform="rotate(270,836,41)" pointer-events="none"/><path d="M 836 26 L 836 66" fill="none" stroke="#000000" stroke-miterlimit="10" transform="rotate(270,836,41)" pointer-events="none"/><path d="M 796 29 L 796 66" fill="none" stroke="#000000" stroke-miterlimit="10" transform="rotate(90,796,41)" pointer-events="none"/><path d="M 788 21 Q 788 29 796 29 Q 804 29 804 21" fill="none" stroke="#000000" stroke-miterlimit="10" transform="rotate(90,796,41)" pointer-events="none"/><g fill="#000000" font-family="Helvetica" font-size="12px"><text x="798" y="30">JDBC</text></g><ellipse cx="576" cy="11" rx="5" ry="5" fill="none" stroke="#000000" transform="rotate(270,576,21)" pointer-events="none"/><path d="M 576 16 L 576 36" fill="none" stroke="#000000" stroke-miterlimit="10" transform="rotate(270,576,21)" pointer-events="none"/><path d="M 511 154 L 511 171" fill="none" stroke="#000000" stroke-miterlimit="10" transform="rotate(90,511,156)" pointer-events="none"/><path d="M 503 146 Q 503 154 511 154 Q 519 154 519 146" fill="none" stroke="#000000" stroke-miterlimit="10" transform="rotate(90,511,156)" pointer-events="none"/><path d="M 513 158 L 522 159.5 Q 531 161 531 151 L 531 31 Q 531 21 541 21 L 558.76 21" fill="none" stroke="#000000" stroke-miterlimit="10" stroke-dasharray="3 3" pointer-events="none"/><path d="M 552.88 24.5 L 559.88 21 L 552.88 17.5" fill="none" stroke="#000000" stroke-miterlimit="10" pointer-events="none"/><g fill="#000000" font-family="Helvetica" font-size="12px"><text x="443" y="71">Access Control</text><text x="443" y="85">Interface</text></g><ellipse cx="576" cy="276" rx="5" ry="5" fill="none" stroke="#000000" transform="rotate(270,576,286)" pointer-events="none"/><path d="M 576 281 L 576 301" fill="none" stroke="#000000" stroke-miterlimit="10" transform="rotate(270,576,286)" pointer-events="none"/><path d="M 396 214 L 396 231" fill="none" stroke="#000000" stroke-miterlimit="10" transform="rotate(180,396,216)" pointer-events="none"/><path d="M 388 206 Q 388 214 396 214 Q 404 214 404 206" fill="none" stroke="#000000" stroke-miterlimit="10" transform="rotate(180,396,216)" pointer-events="none"/><path d="M 396 222 L 396 276 Q 396 286 406 286 L 558.76 286" fill="none" stroke="#000000" stroke-miterlimit="10" stroke-dasharray="3 3" pointer-events="none"/><path d="M 552.88 289.5 L 559.88 286 L 552.88 282.5" fill="none" stroke="#000000" stroke-miterlimit="10" pointer-events="none"/><g fill="#000000" font-family="Helvetica" font-size="12px"><text x="418" y="280">Ride Manager Interface</text></g></g></svg>