<?xml version="1.0" encoding="UTF-8"?>
<!DOCTYPE svg PUBLIC "-//W3C//DTD SVG 1.1//EN" "http://www.w3.org/Graphics/SVG/1.1/DTD/svg11.dtd">
<svg xmlns="http://www.w3.org/2000/svg" xmlns:xlink="http://www.w3.org/1999/xlink" width="703px" height="609px" version="1.1" style="background-color: rgb(255, 255, 255);"><defs/><g transform="translate(0.5,0.5)"><rect x="1" y="1" width="100" height="40" fill="none" stroke="#000000" pointer-events="none"/><path d="M 51 41 L 51 571" fill="none" stroke="#000000" stroke-miterlimit="10" stroke-dasharray="3 3" pointer-events="none"/><g fill="#000000" font-family="Helvetica" text-anchor="middle" font-size="12px"><text x="50.75" y="25.5">:Visitor</text></g><rect x="211" y="1" width="100" height="40" fill="none" stroke="#000000" pointer-events="none"/><path d="M 261 41 L 261 571" fill="none" stroke="#000000" stroke-miterlimit="10" stroke-dasharray="3 3" pointer-events="none"/><g fill="#000000" font-family="Helvetica" text-anchor="middle" font-size="12px"><text x="260.75" y="18.5">:Passenger UI</text><text x="260.75" y="32.5">Logic</text></g><rect x="256" y="68" width="10" height="50" fill="#ffffff" stroke="#000000" pointer-events="none"/><rect x="46" y="51" width="10" height="490" fill="#ffffff" stroke="#000000" pointer-events="none"/><path d="M 56 68 L 247.88 68" fill="none" stroke="#000000" stroke-miterlimit="10" pointer-events="none"/><path d="M 254.88 68 L 247.88 71.5 L 247.88 64.5 Z" fill="#000000" stroke="#000000" stroke-miterlimit="10" pointer-events="none"/><g fill="#000000" font-family="Helvetica" text-anchor="middle" font-size="11px"><rect fill="#ffffff" stroke="none" x="120" y="53" width="74" height="14" stroke-width="0"/><text x="156" y="62">1: showLogin()</text></g><path d="M 256 116 L 58.24 116" fill="none" stroke="#000000" stroke-miterlimit="10" stroke-dasharray="3 3" pointer-events="none"/><path d="M 66.12 111.5 L 57.12 116 L 66.12 120.5" fill="none" stroke="#000000" stroke-miterlimit="10" pointer-events="none"/><g fill="#000000" font-family="Helvetica" text-anchor="middle" font-size="11px"><rect fill="#ffffff" stroke="none" x="151" y="101" width="11" height="14" stroke-width="0"/><text x="156" y="110">2:</text></g><rect x="256" y="171" width="10" height="370" fill="#ffffff" stroke="#000000" pointer-events="none"/><path d="M 56 171 L 247.88 171" fill="none" stroke="#000000" stroke-miterlimit="10" pointer-events="none"/><path d="M 254.88 171 L 247.88 174.5 L 247.88 167.5 Z" fill="#000000" stroke="#000000" stroke-miterlimit="10" pointer-events="none"/><g fill="#000000" font-family="Helvetica" text-anchor="middle" font-size="11px"><rect fill="#ffffff" stroke="none" x="88" y="156" width="137" height="14" stroke-width="0"/><text x="156" y="165">3: submitLoginCredentials()</text></g><rect x="441" y="1" width="100" height="40" fill="none" stroke="#000000" pointer-events="none"/><path d="M 491 41 L 491 541" fill="none" stroke="#000000" stroke-miterlimit="10" stroke-dasharray="3 3" pointer-events="none"/><g fill="#000000" font-family="Helvetica" text-anchor="middle" font-size="12px"><text x="490.75" y="18.5">:Access</text><text x="490.75" y="32.5">Control</text></g><rect x="486" y="284" width="10" height="237" fill="#ffffff" stroke="#000000" pointer-events="none"/><rect x="261" y="211" width="10" height="40" fill="#ffffff" stroke="#000000" pointer-events="none"/><path d="M 266 191 L 291 191 L 291 211 L 279.12 211" fill="none" stroke="#000000" stroke-miterlimit="10" pointer-events="none"/><path d="M 272.12 211 L 279.12 207.5 L 279.12 214.5 Z" fill="#000000" stroke="#000000" stroke-miterlimit="10" pointer-events="none"/><g fill="#000000" font-family="Helvetica" font-size="11px"><rect fill="#ffffff" stroke="none" x="295" y="193" width="83" height="14" stroke-width="0"/><text x="295" y="202.5">4: validateData()</text></g><path d="M 266 284 L 477.88 284" fill="none" stroke="#000000" stroke-miterlimit="10" pointer-events="none"/><path d="M 484.88 284 L 477.88 287.5 L 477.88 280.5 Z" fill="#000000" stroke="#000000" stroke-miterlimit="10" pointer-events="none"/><g fill="#000000" font-family="Helvetica" text-anchor="middle" font-size="11px"><rect fill="#ffffff" stroke="none" x="354" y="269" width="45" height="14" stroke-width="0"/><text x="376" y="278">5: login()</text></g><rect x="601" y="1" width="100" height="40" fill="none" stroke="#000000" pointer-events="none"/><path d="M 651 41 L 651 431" fill="none" stroke="#000000" stroke-miterlimit="10" stroke-dasharray="3 3" pointer-events="none"/><g fill="#000000" font-family="Helvetica" text-anchor="middle" font-size="12px"><text x="650.75" y="18.5">:myTaxiService</text><text x="650.75" y="32.5">Database</text></g><rect x="651" y="310" width="10" height="71" fill="none" stroke="#000000" pointer-events="none"/><path d="M 496 310 L 642.88 310" fill="none" stroke="#000000" stroke-miterlimit="10" pointer-events="none"/><path d="M 649.88 310 L 642.88 313.5 L 642.88 306.5 Z" fill="#000000" stroke="#000000" stroke-miterlimit="10" pointer-events="none"/><g fill="#000000" font-family="Helvetica" text-anchor="middle" font-size="11px"><rect fill="#ffffff" stroke="none" x="525" y="295" width="99" height="14" stroke-width="0"/><text x="574" y="304">5.1: executeQuery()</text></g><path d="M 651 377 L 498.24 377" fill="none" stroke="#000000" stroke-miterlimit="10" stroke-dasharray="3 3" pointer-events="none"/><path d="M 506.12 372.5 L 497.12 377 L 506.12 381.5" fill="none" stroke="#000000" stroke-miterlimit="10" pointer-events="none"/><g fill="#000000" font-family="Helvetica" text-anchor="middle" font-size="11px"><rect fill="#ffffff" stroke="none" x="564" y="362" width="20" height="14" stroke-width="0"/><text x="573" y="371">5.2:</text></g><rect x="491" y="414" width="10" height="40" fill="#ffffff" stroke="#000000" pointer-events="none"/><path d="M 496 394 L 521 394 L 521 414 L 509.12 414" fill="none" stroke="#000000" stroke-miterlimit="10" pointer-events="none"/><path d="M 502.12 414 L 509.12 410.5 L 509.12 417.5 Z" fill="#000000" stroke="#000000" stroke-miterlimit="10" pointer-events="none"/><g fill="#000000" font-family="Helvetica" font-size="11px"><rect fill="#ffffff" stroke="none" x="525" y="396" width="92" height="14" stroke-width="0"/><text x="525" y="405.5">5.3: validateData()</text></g><path d="M 486 504 L 268.24 504" fill="none" stroke="#000000" stroke-miterlimit="10" stroke-dasharray="3 3" pointer-events="none"/><path d="M 276.12 499.5 L 267.12 504 L 276.12 508.5" fill="none" stroke="#000000" stroke-miterlimit="10" pointer-events="none"/><g fill="#000000" font-family="Helvetica" text-anchor="middle" font-size="11px"><rect fill="#ffffff" stroke="none" x="371" y="489" width="11" height="14" stroke-width="0"/><text x="376" y="498">6:</text></g><path d="M 666 424 L 636 454 M 636 424 L 666 454" fill="none" stroke="#000000" stroke-width="3" stroke-miterlimit="10" pointer-events="none"/><path d="M 506 541 L 476 571 M 476 541 L 506 571" fill="none" stroke="#000000" stroke-width="3" stroke-miterlimit="10" pointer-events="none"/><path d="M 256 531 L 221 531 Q 211 531 201 531 L 58.24 531" fill="none" stroke="#000000" stroke-miterlimit="10" stroke-dasharray="3 3" pointer-events="none"/><path d="M 66.12 526.5 L 57.12 531 L 66.12 535.5" fill="none" stroke="#000000" stroke-miterlimit="10" pointer-events="none"/><g fill="#000000" font-family="Helvetica" text-anchor="middle" font-size="11px"><rect fill="#ffffff" stroke="none" x="151" y="516" width="11" height="14" stroke-width="0"/><text x="156" y="525">7:</text></g><path d="M 276 576 L 246 606 M 246 576 L 276 606" fill="none" stroke="#000000" stroke-width="3" stroke-miterlimit="10" pointer-events="none"/><path d="M 66 576 L 36 606 M 36 576 L 66 606" fill="none" stroke="#000000" stroke-width="3" stroke-miterlimit="10" pointer-events="none"/></g></svg>