<?xml version="1.0" encoding="UTF-8"?>
<!DOCTYPE svg PUBLIC "-//W3C//DTD SVG 1.1//EN" "http://www.w3.org/Graphics/SVG/1.1/DTD/svg11.dtd">
<svg xmlns="http://www.w3.org/2000/svg" xmlns:xlink="http://www.w3.org/1999/xlink" width="958px" height="794px" version="1.1" style="background-color: rgb(255, 255, 255);"><defs/><g transform="translate(0.5,0.5)"><rect x="21" y="1" width="100" height="40" fill="none" stroke="#000000" pointer-events="none"/><path d="M 71 41 L 71 761" fill="none" stroke="#000000" stroke-miterlimit="10" stroke-dasharray="3 3" pointer-events="none"/><g fill="#000000" font-family="Helvetica" text-anchor="middle" font-size="12px"><text x="70.75" y="25.5">:Passenger</text></g><rect x="66" y="66" width="10" height="335" fill="#ffffff" stroke="#000000" pointer-events="none"/><rect x="171" y="1" width="100" height="40" fill="none" stroke="#000000" pointer-events="none"/><path d="M 221 41 L 221 761" fill="none" stroke="#000000" stroke-miterlimit="10" stroke-dasharray="3 3" pointer-events="none"/><g fill="#000000" font-family="Helvetica" text-anchor="middle" font-size="12px"><text x="220.75" y="18.5">:Passenger UI</text><text x="220.75" y="32.5">Logic</text></g><rect x="216" y="66" width="10" height="335" fill="#ffffff" stroke="#000000" pointer-events="none"/><rect x="221" y="181" width="10" height="30" fill="#ffffff" stroke="#000000" pointer-events="none"/><path d="M 226 161 L 251 161 L 251 181 L 239.12 181" fill="none" stroke="#000000" stroke-miterlimit="10" pointer-events="none"/><path d="M 232.12 181 L 239.12 177.5 L 239.12 184.5 Z" fill="#000000" stroke="#000000" stroke-miterlimit="10" pointer-events="none"/><g fill="#000000" font-family="Helvetica" font-size="11px"><rect fill="#ffffff" stroke="none" x="255" y="163" width="83" height="14" stroke-width="0"/><text x="255" y="172.5">4: validateData()</text></g><path d="M 76 66 L 207.88 66" fill="none" stroke="#000000" stroke-miterlimit="10" pointer-events="none"/><path d="M 214.88 66 L 207.88 69.5 L 207.88 62.5 Z" fill="#000000" stroke="#000000" stroke-miterlimit="10" pointer-events="none"/><g fill="#000000" font-family="Helvetica" text-anchor="middle" font-size="11px"><rect fill="#ffffff" stroke="none" x="90" y="51" width="114" height="14" stroke-width="0"/><text x="146" y="60">1: showRequestPage()</text></g><path d="M 216 101 L 78.24 101" fill="none" stroke="#000000" stroke-miterlimit="10" stroke-dasharray="3 3" pointer-events="none"/><path d="M 86.12 96.5 L 77.12 101 L 86.12 105.5" fill="none" stroke="#000000" stroke-miterlimit="10" pointer-events="none"/><g fill="#000000" font-family="Helvetica" text-anchor="middle" font-size="11px"><rect fill="#ffffff" stroke="none" x="141" y="86" width="11" height="14" stroke-width="0"/><text x="146" y="95">2:</text></g><path d="M 76 151 L 207.88 151" fill="none" stroke="#000000" stroke-miterlimit="10" pointer-events="none"/><path d="M 214.88 151 L 207.88 154.5 L 207.88 147.5 Z" fill="#000000" stroke="#000000" stroke-miterlimit="10" pointer-events="none"/><g fill="#000000" font-family="Helvetica" text-anchor="middle" font-size="11px"><rect fill="#ffffff" stroke="none" x="88" y="136" width="118" height="14" stroke-width="0"/><text x="146" y="145">3: submitRequestData()</text></g><rect x="581" y="1" width="100" height="40" fill="none" stroke="#000000" pointer-events="none"/><path d="M 631 41 L 631 761" fill="none" stroke="#000000" stroke-miterlimit="10" stroke-dasharray="3 3" pointer-events="none"/><g fill="#000000" font-family="Helvetica" text-anchor="middle" font-size="12px"><text x="630.75" y="25.5">:Ride Manager</text></g><rect x="626" y="231" width="10" height="170" fill="#ffffff" stroke="#000000" pointer-events="none"/><rect x="626" y="431" width="10" height="80" fill="#ffffff" stroke="#000000" pointer-events="none"/><path d="M 226 231 L 617.88 231" fill="none" stroke="#000000" stroke-miterlimit="10" pointer-events="none"/><path d="M 624.88 231 L 617.88 234.5 L 617.88 227.5 Z" fill="#000000" stroke="#000000" stroke-miterlimit="10" pointer-events="none"/><g fill="#000000" font-family="Helvetica" text-anchor="middle" font-size="11px"><rect fill="#ffffff" stroke="none" x="503" y="216" width="93" height="14" stroke-width="0"/><text x="549" y="225">5: createRequest()</text></g><rect x="711" y="1" width="100" height="40" fill="none" stroke="#000000" pointer-events="none"/><path d="M 761 41 L 761 761" fill="none" stroke="#000000" stroke-miterlimit="10" stroke-dasharray="3 3" pointer-events="none"/><g fill="#000000" font-family="Helvetica" text-anchor="middle" font-size="12px"><text x="760.75" y="25.5">:Queue</text></g><rect x="756" y="251" width="10" height="50" fill="#ffffff" stroke="#000000" pointer-events="none"/><rect x="756" y="571" width="10" height="30" fill="none" stroke="#000000" pointer-events="none"/><path d="M 636 251 L 747.88 251" fill="none" stroke="#000000" stroke-miterlimit="10" pointer-events="none"/><path d="M 754.88 251 L 747.88 254.5 L 747.88 247.5 Z" fill="#000000" stroke="#000000" stroke-miterlimit="10" pointer-events="none"/><g fill="#000000" font-family="Helvetica" text-anchor="middle" font-size="11px"><rect fill="#ffffff" stroke="none" x="661" y="236" width="71" height="14" stroke-width="0"/><text x="696" y="245">6: selectTaxi()</text></g><path d="M 756 299 L 638.24 299" fill="none" stroke="#000000" stroke-miterlimit="10" stroke-dasharray="3 3" pointer-events="none"/><path d="M 646.12 294.5 L 637.12 299 L 646.12 303.5" fill="none" stroke="#000000" stroke-miterlimit="10" pointer-events="none"/><g fill="#000000" font-family="Helvetica" text-anchor="middle" font-size="11px"><rect fill="#ffffff" stroke="none" x="665" y="284" width="64" height="14" stroke-width="0"/><text x="696" y="293">7: TaxiDriver</text></g><rect x="856" y="1" width="100" height="40" fill="none" stroke="#000000" pointer-events="none"/><path d="M 906 41 L 906 761" fill="none" stroke="#000000" stroke-miterlimit="10" stroke-dasharray="3 3" pointer-events="none"/><g fill="#000000" font-family="Helvetica" text-anchor="middle" font-size="12px"><text x="905.75" y="25.5">:Maps Service</text></g><rect x="416" y="1" width="100" height="40" fill="none" stroke="#000000" pointer-events="none"/><path d="M 466 41 L 466 761" fill="none" stroke="#000000" stroke-miterlimit="10" stroke-dasharray="3 3" pointer-events="none"/><g fill="#000000" font-family="Helvetica" text-anchor="middle" font-size="12px"><text x="465.75" y="18.5">:Taxi Driver UI</text><text x="465.75" y="32.5">Logic</text></g><rect x="461" y="321" width="10" height="80" fill="#ffffff" stroke="#000000" pointer-events="none"/><rect x="461" y="561" width="10" height="40" fill="#ffffff" stroke="#000000" pointer-events="none"/><path d="M 626 320 L 479.12 320" fill="none" stroke="#000000" stroke-miterlimit="10" pointer-events="none"/><path d="M 472.12 320 L 479.12 316.5 L 479.12 323.5 Z" fill="#000000" stroke="#000000" stroke-miterlimit="10" pointer-events="none"/><g fill="#000000" font-family="Helvetica" text-anchor="middle" font-size="11px"><rect fill="#ffffff" stroke="none" x="471" y="305" width="155" height="14" stroke-width="0"/><text x="548" y="314">8: showNewIncomingRequest()</text></g><rect x="291" y="1" width="100" height="40" fill="none" stroke="#000000" pointer-events="none"/><path d="M 341 41 L 341 421" fill="none" stroke="#000000" stroke-miterlimit="10" stroke-dasharray="3 3" pointer-events="none"/><g fill="#000000" font-family="Helvetica" text-anchor="middle" font-size="12px"><text x="340.75" y="25.5">:Taxi Driver</text></g><rect x="336" y="341" width="10" height="60" fill="#ffffff" stroke="#000000" pointer-events="none"/><path d="M 461 341 L 354.12 341" fill="none" stroke="#000000" stroke-miterlimit="10" pointer-events="none"/><path d="M 347.12 341 L 354.12 337.5 L 354.12 344.5 Z" fill="#000000" stroke="#000000" stroke-miterlimit="10" pointer-events="none"/><g fill="#000000" font-family="Helvetica" text-anchor="middle" font-size="11px"><rect fill="#ffffff" stroke="none" x="345" y="326" width="117" height="14" stroke-width="0"/><text x="403" y="335">9: dispatchNotification()</text></g><path d="M 346 381 L 452.88 381" fill="none" stroke="#000000" stroke-miterlimit="10" pointer-events="none"/><path d="M 459.88 381 L 452.88 384.5 L 452.88 377.5 Z" fill="#000000" stroke="#000000" stroke-miterlimit="10" pointer-events="none"/><g fill="#000000" font-family="Helvetica" text-anchor="middle" font-size="11px"><rect fill="#ffffff" stroke="none" x="358" y="353" width="94" height="27" stroke-width="0"/><text x="404" y="362">10: submitRequest</text><text x="404" y="375">Response()</text></g><path d="M 1 411 L 61 411 L 61 426 L 51 441 L 1 441 Z" fill="#ffffff" stroke="#000000" stroke-miterlimit="10" pointer-events="none"/><path d="M 61 411 L 951 411 L 951 741 L 1 741 L 1 441" fill="none" stroke="#000000" stroke-miterlimit="10" pointer-events="none"/><g fill="#000000" font-family="Helvetica" text-anchor="middle" font-size="12px"><text x="31.5" y="430.5">alt</text></g><g fill="#000000" font-family="Helvetica" font-size="12px"><text x="78" y="425">[Request Declined]</text></g><path d="M 471 431 L 623.76 431" fill="none" stroke="#000000" stroke-miterlimit="10" stroke-dasharray="3 3" pointer-events="none"/><path d="M 615.88 435.5 L 624.88 431 L 615.88 426.5" fill="none" stroke="#000000" stroke-miterlimit="10" pointer-events="none"/><g fill="#000000" font-family="Helvetica" text-anchor="middle" font-size="11px"><rect fill="#ffffff" stroke="none" x="492" y="416" width="116" height="14" stroke-width="0"/><text x="549" y="425">11: Driver not Available</text></g><rect x="461" y="431" width="10" height="30" fill="#ffffff" stroke="#000000" pointer-events="none"/><path d="M 626 484 L 228.24 484" fill="none" stroke="#000000" stroke-miterlimit="10" stroke-dasharray="3 3" pointer-events="none"/><path d="M 236.12 479.5 L 227.12 484 L 236.12 488.5" fill="none" stroke="#000000" stroke-miterlimit="10" pointer-events="none"/><g fill="#000000" font-family="Helvetica" text-anchor="middle" font-size="11px"><rect fill="#ffffff" stroke="none" x="418" y="469" width="17" height="14" stroke-width="0"/><text x="426" y="478">12:</text></g><path d="M 216 499 L 78.24 499" fill="none" stroke="#000000" stroke-miterlimit="10" stroke-dasharray="3 3" pointer-events="none"/><path d="M 86.12 494.5 L 77.12 499 L 86.12 503.5" fill="none" stroke="#000000" stroke-miterlimit="10" pointer-events="none"/><g fill="#000000" font-family="Helvetica" text-anchor="middle" font-size="11px"><rect fill="#ffffff" stroke="none" x="138" y="484" width="17" height="14" stroke-width="0"/><text x="146" y="493">13:</text></g><rect x="216" y="484" width="10" height="30" fill="#ffffff" stroke="#000000" pointer-events="none"/><rect x="66" y="499" width="10" height="30" fill="#ffffff" stroke="#000000" pointer-events="none"/><path d="M 1 540 L 951 540" fill="none" stroke="#000000" stroke-miterlimit="10" pointer-events="none"/><rect x="901" y="631" width="10" height="50" fill="#ffffff" stroke="#000000" pointer-events="none"/><path d="M 636 631 L 892.88 631" fill="none" stroke="#000000" stroke-miterlimit="10" pointer-events="none"/><path d="M 899.88 631 L 892.88 634.5 L 892.88 627.5 Z" fill="#000000" stroke="#000000" stroke-miterlimit="10" pointer-events="none"/><g fill="#000000" font-family="Helvetica" text-anchor="middle" font-size="11px"><rect fill="#ffffff" stroke="none" x="726" y="616" width="86" height="14" stroke-width="0"/><text x="768.5" y="625">14: requestETA()</text></g><path d="M 901 664 L 638.24 664" fill="none" stroke="#000000" stroke-miterlimit="10" stroke-dasharray="3 3" pointer-events="none"/><path d="M 646.12 659.5 L 637.12 664 L 646.12 668.5" fill="none" stroke="#000000" stroke-miterlimit="10" pointer-events="none"/><g fill="#000000" font-family="Helvetica" text-anchor="middle" font-size="11px"><rect fill="#ffffff" stroke="none" x="761" y="649" width="17" height="14" stroke-width="0"/><text x="768.5" y="658">15:</text></g><rect x="626" y="561" width="10" height="110" fill="#ffffff" stroke="#000000" pointer-events="none"/><path d="M 471 561 L 624.76 561" fill="none" stroke="#000000" stroke-miterlimit="10" stroke-dasharray="3 3" pointer-events="none"/><path d="M 616.88 565.5 L 625.88 561 L 616.88 556.5" fill="none" stroke="#000000" stroke-miterlimit="10" pointer-events="none"/><g fill="#000000" font-family="Helvetica" text-anchor="middle" font-size="11px"><rect fill="#ffffff" stroke="none" x="501" y="546" width="97" height="14" stroke-width="0"/><text x="549" y="555">11: Driver Available</text></g><path d="M 626 671 L 228.24 671" fill="none" stroke="#000000" stroke-miterlimit="10" stroke-dasharray="3 3" pointer-events="none"/><path d="M 236.12 666.5 L 227.12 671 L 236.12 675.5" fill="none" stroke="#000000" stroke-miterlimit="10" pointer-events="none"/><g fill="#000000" font-family="Helvetica" text-anchor="middle" font-size="11px"><rect fill="#ffffff" stroke="none" x="286" y="656" width="172" height="14" stroke-width="0"/><text x="371" y="665">15: confirmationMessage with ETA</text></g><path d="M 216 691 L 78.24 691" fill="none" stroke="#000000" stroke-miterlimit="10" stroke-dasharray="3 3" pointer-events="none"/><path d="M 86.12 686.5 L 77.12 691 L 86.12 695.5" fill="none" stroke="#000000" stroke-miterlimit="10" pointer-events="none"/><g fill="#000000" font-family="Helvetica" text-anchor="middle" font-size="11px"><rect fill="#ffffff" stroke="none" x="138" y="676" width="17" height="14" stroke-width="0"/><text x="146" y="685">16:</text></g><rect x="216" y="671" width="10" height="30" fill="#ffffff" stroke="#000000" pointer-events="none"/><rect x="66" y="691" width="10" height="30" fill="#ffffff" stroke="#000000" pointer-events="none"/><path d="M 921 761 L 891 791 M 891 761 L 921 791" fill="none" stroke="#000000" stroke-width="3" stroke-miterlimit="10" pointer-events="none"/><path d="M 646 761 L 616 791 M 616 761 L 646 791" fill="none" stroke="#000000" stroke-width="3" stroke-miterlimit="10" pointer-events="none"/><path d="M 481 761 L 451 791 M 451 761 L 481 791" fill="none" stroke="#000000" stroke-width="3" stroke-miterlimit="10" pointer-events="none"/><path d="M 236 761 L 206 791 M 206 761 L 236 791" fill="none" stroke="#000000" stroke-width="3" stroke-miterlimit="10" pointer-events="none"/><path d="M 86 761 L 56 791 M 56 761 L 86 791" fill="none" stroke="#000000" stroke-width="3" stroke-miterlimit="10" pointer-events="none"/><path d="M 756 600 L 638.24 600" fill="none" stroke="#000000" stroke-miterlimit="10" stroke-dasharray="3 3" pointer-events="none"/><path d="M 646.12 595.5 L 637.12 600 L 646.12 604.5" fill="none" stroke="#000000" stroke-miterlimit="10" pointer-events="none"/><g fill="#000000" font-family="Helvetica" text-anchor="middle" font-size="11px"><rect fill="#ffffff" stroke="none" x="688" y="585" width="17" height="14" stroke-width="0"/><text x="696" y="594">13:</text></g><path d="M 636 571 L 747.88 571" fill="none" stroke="#000000" stroke-miterlimit="10" pointer-events="none"/><path d="M 754.88 571 L 747.88 574.5 L 747.88 567.5 Z" fill="#000000" stroke="#000000" stroke-miterlimit="10" pointer-events="none"/><g fill="#000000" font-family="Helvetica" text-anchor="middle" font-size="11px"><rect fill="#ffffff" stroke="none" x="654" y="556" width="85" height="14" stroke-width="0"/><text x="696" y="565">12: removeTaxi()</text></g></g></svg>